<svg width="30" height="30" viewBox="0 0 30 30" fill="none" xmlns="http://www.w3.org/2000/svg">
<path d="M22.1152 13.9044C21.9859 13.8425 21.8547 13.7829 21.7217 13.7258C21.4902 9.45909 19.1587 7.01641 15.244 6.99141C15.2263 6.9913 15.2087 6.9913 15.1909 6.9913C12.8494 6.9913 10.902 7.99077 9.70344 9.80948L11.8564 11.2864C12.7518 9.92786 14.1571 9.63825 15.192 9.63825C15.2039 9.63825 15.2159 9.63825 15.2278 9.63836C16.5167 9.64658 17.4894 10.0213 18.1189 10.7522C18.577 11.2843 18.8834 12.0195 19.0352 12.9475C17.8923 12.7532 16.6564 12.6935 15.3352 12.7693C11.6132 12.9837 9.22048 15.1544 9.38119 18.1706C9.46273 19.7006 10.225 21.0169 11.5273 21.8767C12.6285 22.6036 14.0467 22.9591 15.5207 22.8786C17.4672 22.7719 18.9942 22.0292 20.0595 20.6713C20.8686 19.64 21.3803 18.3036 21.6063 16.6197C22.5339 17.1795 23.2214 17.9163 23.6011 18.8019C24.2467 20.3073 24.2844 22.7812 22.2658 24.7981C20.4972 26.565 18.3713 27.3294 15.1584 27.353C11.5944 27.3266 8.89903 26.1836 7.14658 23.9558C5.50555 21.8697 4.65745 18.8566 4.62581 15C4.65745 11.1434 5.50555 8.13025 7.14658 6.04417C8.89903 3.81639 11.5944 2.67344 15.1583 2.64695C18.7481 2.67364 21.4905 3.82209 23.31 6.06062C24.2022 7.15837 24.8748 8.53888 25.3183 10.1485L27.8413 9.47534C27.3038 7.49409 26.458 5.78683 25.307 4.37094C22.9744 1.50104 19.5628 0.0304919 15.1671 0H15.1495C10.7628 0.0303859 7.38939 1.50653 5.12317 4.38739C3.10655 6.951 2.06631 10.5181 2.03136 14.9895L2.03125 15L2.03136 15.0105C2.06631 19.4819 3.10655 23.0491 5.12317 25.6127C7.38939 28.4934 10.7628 29.9697 15.1495 30H15.1671C19.0672 29.973 21.8162 28.9519 24.0809 26.6892C27.0439 23.7291 26.9547 20.0186 25.9781 17.7408C25.2775 16.1073 23.9417 14.7807 22.1152 13.9044ZM15.3813 20.2355C13.7501 20.3273 12.0554 19.5952 11.9718 18.0269C11.9099 16.8641 12.7993 15.5666 15.4814 15.412C15.7886 15.3943 16.09 15.3856 16.3861 15.3856C17.3603 15.3856 18.2717 15.4803 19.1003 15.6614C18.7913 19.5211 16.9784 20.1478 15.3813 20.2355Z" fill="#D78B30"/>
</svg>
