<svg width="33" height="33" viewBox="0 0 33 33" fill="none" xmlns="http://www.w3.org/2000/svg">
<path d="M9.38867 12.207L13.3353 14.5404C15.6361 15.9008 16.5558 15.9008 18.8567 14.5404L22.8033 12.207" stroke="white" stroke-width="2.19512" stroke-miterlimit="16" stroke-linecap="square"/>
<path d="M2.70475 18.8819C2.79244 22.9943 2.83629 25.0504 4.35366 26.5736C5.87102 28.0967 7.98282 28.1497 12.2064 28.2558C14.8095 28.3212 17.387 28.3212 19.9901 28.2558C24.2137 28.1497 26.3254 28.0967 27.8429 26.5736C29.3602 25.0504 29.4041 22.9943 29.4917 18.8819C29.52 17.5596 29.52 16.2453 29.4917 14.923C29.4041 10.8107 29.3602 8.75451 27.8429 7.23137C26.3254 5.70824 24.2137 5.65518 19.9901 5.54906C17.387 5.48365 14.8095 5.48365 12.2064 5.54905C7.98282 5.65516 5.87102 5.70821 4.35365 7.23136C2.83628 8.7545 2.79244 10.8107 2.70474 14.923C2.67654 16.2453 2.67655 17.5596 2.70475 18.8819Z" stroke="white" stroke-width="2.19512" stroke-miterlimit="16" stroke-linecap="square"/>
</svg>
