<svg width="33" height="33" viewBox="0 0 33 33" fill="none" xmlns="http://www.w3.org/2000/svg">
<path d="M5.0682 16.8257C3.79647 14.6081 3.18242 12.7973 2.81216 10.9619C2.26455 8.24723 3.51773 5.59547 5.59374 3.90343C6.47115 3.18831 7.47695 3.43264 7.99579 4.36345L9.16713 6.46487C10.0956 8.13051 10.5598 8.96332 10.4677 9.84627C10.3756 10.7292 9.74958 11.4483 8.49745 12.8866L5.0682 16.8257ZM5.0682 16.8257C7.64233 21.3141 11.6819 25.3559 16.1755 27.933M16.1755 27.933C18.3931 29.2047 20.2038 29.8188 22.0393 30.189C24.7539 30.7366 27.4057 29.4834 29.0977 27.4074C29.8128 26.5301 29.5685 25.5242 28.6377 25.0054L26.5363 23.834C24.8706 22.9056 24.0378 22.4414 23.1549 22.5334C22.2719 22.6255 21.5528 23.2515 20.1146 24.5037L16.1755 27.933Z" stroke="white" stroke-width="2.19512" stroke-miterlimit="16" stroke-linecap="square"/>
<path d="M18.7812 9.97003C20.6904 10.7808 22.2205 12.3108 23.0313 14.22M19.6586 3.48828C24.4036 4.85759 28.1435 8.59727 29.513 13.3422" stroke="white" stroke-width="2.19512" stroke-miterlimit="16" stroke-linecap="square"/>
</svg>
