<svg width="26" height="26" viewBox="0 0 26 26" fill="none" xmlns="http://www.w3.org/2000/svg">
<path d="M12.5125 20.7132L5.64045 13.7072C5.55805 13.6232 5.50037 13.5392 5.46741 13.4552C5.43445 13.3712 5.41797 13.2788 5.41797 13.178C5.41797 13.0772 5.43445 12.9848 5.46741 12.9008C5.50037 12.8168 5.55805 12.7328 5.64045 12.6488L12.5373 5.61763C12.6691 5.48322 12.8339 5.41602 13.0316 5.41602C13.2294 5.41602 13.4024 5.49162 13.5508 5.64283C13.6991 5.79403 13.7732 5.97044 13.7732 6.17205C13.7732 6.37366 13.6991 6.55007 13.5508 6.70128L7.93938 12.422H20.2004C20.4146 12.422 20.5918 12.4934 20.7318 12.6362C20.8719 12.779 20.942 12.9596 20.942 13.178C20.942 13.3964 20.8719 13.577 20.7318 13.7198C20.5918 13.8626 20.4146 13.934 20.2004 13.934H7.93938L13.5755 19.6799C13.7073 19.8144 13.7732 19.9824 13.7732 20.184C13.7732 20.3856 13.6991 20.562 13.5508 20.7132C13.4024 20.8644 13.2294 20.94 13.0316 20.94C12.8339 20.94 12.6609 20.8644 12.5125 20.7132Z" fill="black" fill-opacity="0.6"/>
<path d="M5.42628 13.9173L5.64 13.7077L5.42628 13.9173L12.2984 20.9233C12.4986 21.1275 12.7472 21.24 13.0316 21.24C13.3161 21.24 13.5646 21.1275 13.7649 20.9233C13.9652 20.7191 14.0732 20.4684 14.0732 20.184C14.0732 19.9099 13.9807 19.6646 13.7896 19.4699L8.65388 14.234H20.2004C20.4888 14.234 20.7452 14.1346 20.946 13.9299C21.1464 13.7256 21.242 13.4671 21.242 13.178C21.242 12.889 21.1464 12.6304 20.946 12.4261C20.7452 12.2214 20.4888 12.122 20.2004 12.122H8.65388L13.7649 6.91136C13.9652 6.70721 14.0732 6.45653 14.0732 6.17205C14.0732 5.88758 13.9652 5.6369 13.7649 5.43275C13.5646 5.22856 13.3161 5.11602 13.0316 5.11602C12.7579 5.11602 12.5144 5.21247 12.3231 5.40755L5.42628 12.4387C5.32383 12.5432 5.23956 12.6601 5.18814 12.7912C5.13997 12.914 5.11797 13.0441 5.11797 13.178C5.11797 13.3119 5.13997 13.442 5.18814 13.5648C5.23956 13.6959 5.32383 13.8129 5.42628 13.9173Z" stroke="black" stroke-opacity="0.6" stroke-width="0.6"/>
</svg>
