<svg width="26" height="25" viewBox="0 0 26 25" fill="none" xmlns="http://www.w3.org/2000/svg">
<path d="M13.4875 20.3362L20.3596 13.3303C20.442 13.2463 20.4996 13.1623 20.5326 13.0783C20.5656 12.9943 20.582 12.9019 20.582 12.8011C20.582 12.7003 20.5656 12.6078 20.5326 12.5238C20.4996 12.4398 20.442 12.3558 20.3596 12.2718L13.4627 5.24067C13.3309 5.10627 13.1661 5.03906 12.9684 5.03906C12.7706 5.03906 12.5976 5.11467 12.4492 5.26587C12.3009 5.41708 12.2268 5.59349 12.2268 5.7951C12.2268 5.99671 12.3009 6.17312 12.4492 6.32433L18.0606 12.045H5.79963C5.58539 12.045 5.40824 12.1164 5.26816 12.2592C5.12808 12.402 5.05804 12.5826 5.05804 12.8011C5.05804 13.0195 5.12808 13.2001 5.26816 13.3429C5.40824 13.4857 5.58539 13.5571 5.79963 13.5571H18.0606L12.4245 19.303C12.2927 19.4374 12.2268 19.6054 12.2268 19.807C12.2268 20.0086 12.3009 20.185 12.4492 20.3362C12.5976 20.4875 12.7706 20.5631 12.9684 20.5631C13.1661 20.5631 13.3391 20.4875 13.4875 20.3362Z" fill="black" fill-opacity="0.6"/>
<path d="M20.5737 13.5404L20.36 13.3307L20.5737 13.5404L13.7016 20.5463C13.5014 20.7505 13.2528 20.8631 12.9684 20.8631C12.6839 20.8631 12.4354 20.7505 12.2351 20.5463C12.0348 20.3422 11.9268 20.0915 11.9268 19.807C11.9268 19.533 12.0193 19.2876 12.2104 19.0929L17.3461 13.8571H5.79963C5.51117 13.8571 5.25478 13.7577 5.05399 13.553C4.85359 13.3487 4.75804 13.0901 4.75804 12.8011C4.75804 12.512 4.85359 12.2535 5.05399 12.0492C5.25478 11.8444 5.51118 11.745 5.79963 11.745H17.3461L12.2351 6.5344C12.0348 6.33026 11.9268 6.07957 11.9268 5.7951C11.9268 5.51063 12.0348 5.25994 12.2351 5.0558C12.4354 4.85161 12.6839 4.73906 12.9684 4.73906C13.2421 4.73906 13.4856 4.83552 13.6769 5.0306L20.5737 12.0618C20.6762 12.1662 20.7604 12.2832 20.8119 12.4143C20.86 12.537 20.882 12.6671 20.882 12.8011C20.882 12.935 20.86 13.0651 20.8119 13.1878C20.7604 13.3189 20.6762 13.4359 20.5737 13.5404Z" stroke="black" stroke-opacity="0.6" stroke-width="0.6"/>
</svg>
