<svg 
    width="17" 
    height="17" 
    viewBox="0 0 17 17" 
    fill="none" 
    xmlns="http://www.w3.org/2000/svg"
>
    <path 
        d="M9.4075 1.61921L10.8153 4.45817C11.0073 4.85336 11.5193 5.23243 11.9512 5.30502L14.5029 5.73247C16.1348 6.00669 16.5187 7.20034 15.3428 8.37786L13.3591 10.378C13.0231 10.7168 12.8391 11.3701 12.9431 11.8378L13.511 14.3139C13.959 16.2737 12.9271 17.0318 11.2073 16.0076L8.81557 14.58C8.38361 14.3219 7.67169 14.3219 7.23174 14.58L4.84 16.0076C3.12819 17.0318 2.08831 16.2656 2.53626 14.3139L3.1042 11.8378C3.20818 11.3701 3.0242 10.7168 2.68824 10.378L0.704462 8.37786C-0.463409 7.20034 -0.0874507 6.00669 1.54437 5.73247L4.09609 5.30502C4.52004 5.23243 5.03198 4.85336 5.22396 4.45817L6.63181 1.61921C7.39972 0.078753 8.64758 0.078753 9.4075 1.61921Z" 
        fill="white"
    />
</svg>
