<svg width="747" height="499" viewBox="0 0 747 499" fill="none" xmlns="http://www.w3.org/2000/svg">
<g clip-path="url(#clip0_858328_81089)">
<path d="M746.631 41.1348H0V42.4446H746.631V41.1348Z" fill="#0E0E0E" fill-opacity="0.05"/>
<path d="M746.631 0H0V1.30988H746.631V0Z" fill="#0E0E0E" fill-opacity="0.05"/>
<path d="M75.8957 1.61133H74.8125V41.8146H75.8957V1.61133Z" fill="#0E0E0E" fill-opacity="0.05"/>
<path d="M167.087 1.61133H166.004V41.8146H167.087V1.61133Z" fill="#0E0E0E" fill-opacity="0.05"/>
<path d="M258.271 1.61133H257.188V41.8146H258.271V1.61133Z" fill="#0E0E0E" fill-opacity="0.05"/>
<path d="M349.462 1.61133H348.379V41.8146H349.462V1.61133Z" fill="#0E0E0E" fill-opacity="0.05"/>
<path d="M440.673 1.61133H439.59V41.8146H440.673V1.61133Z" fill="#0E0E0E" fill-opacity="0.05"/>
<path d="M531.862 1.61133H530.779V41.8146H531.862V1.61133Z" fill="#0E0E0E" fill-opacity="0.05"/>
<path d="M623.05 1.61133H621.967V41.8146H623.05V1.61133Z" fill="#0E0E0E" fill-opacity="0.05"/>
<path d="M714.234 1.61133H713.15V41.8146H714.234V1.61133Z" fill="#0E0E0E" fill-opacity="0.05"/>
<path d="M746.631 81.8926H0V83.2025H746.631V81.8926Z" fill="#0E0E0E" fill-opacity="0.05"/>
<path d="M100.282 42.3438H99.1992V82.547H100.282V42.3438Z" fill="#0E0E0E" fill-opacity="0.05"/>
<path d="M191.47 42.3438H190.387V82.547H191.47V42.3438Z" fill="#0E0E0E" fill-opacity="0.05"/>
<path d="M282.655 42.3438H281.572V82.547H282.655V42.3438Z" fill="#0E0E0E" fill-opacity="0.05"/>
<path d="M373.845 42.3438H372.762V82.547H373.845V42.3438Z" fill="#0E0E0E" fill-opacity="0.05"/>
<path d="M465.056 42.3438H463.973V82.547H465.056V42.3438Z" fill="#0E0E0E" fill-opacity="0.05"/>
<path d="M556.247 42.3438H555.164V82.547H556.247V42.3438Z" fill="#0E0E0E" fill-opacity="0.05"/>
<path d="M647.433 42.3438H646.35V82.547H647.433V42.3438Z" fill="#0E0E0E" fill-opacity="0.05"/>
<path d="M746.631 122.625H0V123.935H746.631V122.625Z" fill="#0E0E0E" fill-opacity="0.05"/>
<path d="M75.8957 83.1016H74.8125V123.305H75.8957V83.1016Z" fill="#0E0E0E" fill-opacity="0.05"/>
<path d="M167.087 83.1016H166.004V123.305H167.087V83.1016Z" fill="#0E0E0E" fill-opacity="0.05"/>
<path d="M258.271 83.1016H257.188V123.305H258.271V83.1016Z" fill="#0E0E0E" fill-opacity="0.05"/>
<path d="M349.462 83.1016H348.379V123.305H349.462V83.1016Z" fill="#0E0E0E" fill-opacity="0.05"/>
<path d="M440.673 83.1016H439.59V123.305H440.673V83.1016Z" fill="#0E0E0E" fill-opacity="0.05"/>
<path d="M531.862 83.1016H530.779V123.305H531.862V83.1016Z" fill="#0E0E0E" fill-opacity="0.05"/>
<path d="M623.05 83.1016H621.967V123.305H623.05V83.1016Z" fill="#0E0E0E" fill-opacity="0.05"/>
<path d="M714.234 83.1016H713.15V123.305H714.234V83.1016Z" fill="#0E0E0E" fill-opacity="0.05"/>
<path d="M746.631 163.381H0V164.691H746.631V163.381Z" fill="#0E0E0E" fill-opacity="0.05"/>
<path d="M100.282 123.834H99.1992V164.037H100.282V123.834Z" fill="#0E0E0E" fill-opacity="0.05"/>
<path d="M191.47 123.834H190.387V164.037H191.47V123.834Z" fill="#0E0E0E" fill-opacity="0.05"/>
<path d="M282.655 123.834H281.572V164.037H282.655V123.834Z" fill="#0E0E0E" fill-opacity="0.05"/>
<path d="M373.845 123.834H372.762V164.037H373.845V123.834Z" fill="#0E0E0E" fill-opacity="0.05"/>
<path d="M465.056 123.834H463.973V164.037H465.056V123.834Z" fill="#0E0E0E" fill-opacity="0.05"/>
<path d="M556.247 123.834H555.164V164.037H556.247V123.834Z" fill="#0E0E0E" fill-opacity="0.05"/>
<path d="M647.433 123.834H646.35V164.037H647.433V123.834Z" fill="#0E0E0E" fill-opacity="0.05"/>
<path d="M746.631 204.141H0V205.45H746.631V204.141Z" fill="#0E0E0E" fill-opacity="0.05"/>
<path d="M75.8957 164.592H74.8125V204.795H75.8957V164.592Z" fill="#0E0E0E" fill-opacity="0.05"/>
<path d="M167.087 164.592H166.004V204.795H167.087V164.592Z" fill="#0E0E0E" fill-opacity="0.05"/>
<path d="M258.271 164.592H257.188V204.795H258.271V164.592Z" fill="#0E0E0E" fill-opacity="0.05"/>
<path d="M349.462 164.592H348.379V204.795H349.462V164.592Z" fill="#0E0E0E" fill-opacity="0.05"/>
<path d="M440.673 164.592H439.59V204.795H440.673V164.592Z" fill="#0E0E0E" fill-opacity="0.05"/>
<path d="M531.862 164.592H530.779V204.795H531.862V164.592Z" fill="#0E0E0E" fill-opacity="0.05"/>
<path d="M623.05 164.592H621.967V204.795H623.05V164.592Z" fill="#0E0E0E" fill-opacity="0.05"/>
<path d="M714.234 164.592H713.15V204.795H714.234V164.592Z" fill="#0E0E0E" fill-opacity="0.05"/>
<path d="M746.631 244.871H0V246.181H746.631V244.871Z" fill="#0E0E0E" fill-opacity="0.05"/>
<path d="M100.282 205.35H99.1992V245.553H100.282V205.35Z" fill="#0E0E0E" fill-opacity="0.05"/>
<path d="M191.47 205.35H190.387V245.553H191.47V205.35Z" fill="#0E0E0E" fill-opacity="0.05"/>
<path d="M282.655 205.35H281.572V245.553H282.655V205.35Z" fill="#0E0E0E" fill-opacity="0.05"/>
<path d="M373.845 205.35H372.762V245.553H373.845V205.35Z" fill="#0E0E0E" fill-opacity="0.05"/>
<path d="M465.056 205.35H463.973V245.553H465.056V205.35Z" fill="#0E0E0E" fill-opacity="0.05"/>
<path d="M556.247 205.35H555.164V245.553H556.247V205.35Z" fill="#0E0E0E" fill-opacity="0.05"/>
<path d="M647.433 205.35H646.35V245.553H647.433V205.35Z" fill="#0E0E0E" fill-opacity="0.05"/>
<path d="M746.631 285.629H0V286.939H746.631V285.629Z" fill="#0E0E0E" fill-opacity="0.05"/>
<path d="M75.8957 246.08H74.8125V286.283H75.8957V246.08Z" fill="#0E0E0E" fill-opacity="0.05"/>
<path d="M167.087 246.08H166.004V286.283H167.087V246.08Z" fill="#0E0E0E" fill-opacity="0.05"/>
<path d="M258.271 246.08H257.188V286.283H258.271V246.08Z" fill="#0E0E0E" fill-opacity="0.05"/>
<path d="M349.462 246.08H348.379V286.283H349.462V246.08Z" fill="#0E0E0E" fill-opacity="0.05"/>
<path d="M440.673 246.08H439.59V286.283H440.673V246.08Z" fill="#0E0E0E" fill-opacity="0.05"/>
<path d="M531.862 246.08H530.779V286.283H531.862V246.08Z" fill="#0E0E0E" fill-opacity="0.05"/>
<path d="M623.05 246.08H621.967V286.283H623.05V246.08Z" fill="#0E0E0E" fill-opacity="0.05"/>
<path d="M714.234 246.08H713.15V286.283H714.234V246.08Z" fill="#0E0E0E" fill-opacity="0.05"/>
<path d="M746.631 326.361H0V327.671H746.631V326.361Z" fill="#0E0E0E" fill-opacity="0.05"/>
<path d="M100.282 286.838H99.1992V327.041H100.282V286.838Z" fill="#0E0E0E" fill-opacity="0.05"/>
<path d="M191.47 286.838H190.387V327.041H191.47V286.838Z" fill="#0E0E0E" fill-opacity="0.05"/>
<path d="M282.655 286.838H281.572V327.041H282.655V286.838Z" fill="#0E0E0E" fill-opacity="0.05"/>
<path d="M373.845 286.838H372.762V327.041H373.845V286.838Z" fill="#0E0E0E" fill-opacity="0.05"/>
<path d="M465.056 286.838H463.973V327.041H465.056V286.838Z" fill="#0E0E0E" fill-opacity="0.05"/>
<path d="M556.247 286.838H555.164V327.041H556.247V286.838Z" fill="#0E0E0E" fill-opacity="0.05"/>
<path d="M647.433 286.838H646.35V327.041H647.433V286.838Z" fill="#0E0E0E" fill-opacity="0.05"/>
<path d="M746.631 366.389H0V367.699H746.631V366.389Z" fill="#0E0E0E" fill-opacity="0.05"/>
<path d="M75.8957 326.84H74.8125V367.043H75.8957V326.84Z" fill="#0E0E0E" fill-opacity="0.05"/>
<path d="M167.087 326.84H166.004V367.043H167.087V326.84Z" fill="#0E0E0E" fill-opacity="0.05"/>
<path d="M258.271 326.84H257.188V367.043H258.271V326.84Z" fill="#0E0E0E" fill-opacity="0.05"/>
<path d="M349.462 326.84H348.379V367.043H349.462V326.84Z" fill="#0E0E0E" fill-opacity="0.05"/>
<path d="M440.673 326.84H439.59V367.043H440.673V326.84Z" fill="#0E0E0E" fill-opacity="0.05"/>
<path d="M531.862 326.84H530.779V367.043H531.862V326.84Z" fill="#0E0E0E" fill-opacity="0.05"/>
<path d="M623.05 326.84H621.967V367.043H623.05V326.84Z" fill="#0E0E0E" fill-opacity="0.05"/>
<path d="M714.234 326.84H713.15V367.043H714.234V326.84Z" fill="#0E0E0E" fill-opacity="0.05"/>
<path d="M746.631 407.146H0V408.456H746.631V407.146Z" fill="#0E0E0E" fill-opacity="0.05"/>
<path d="M100.282 367.598H99.1992V407.801H100.282V367.598Z" fill="#0E0E0E" fill-opacity="0.05"/>
<path d="M191.47 367.598H190.387V407.801H191.47V367.598Z" fill="#0E0E0E" fill-opacity="0.05"/>
<path d="M282.655 367.598H281.572V407.801H282.655V367.598Z" fill="#0E0E0E" fill-opacity="0.05"/>
<path d="M373.845 367.598H372.762V407.801H373.845V367.598Z" fill="#0E0E0E" fill-opacity="0.05"/>
<path d="M465.056 367.598H463.973V407.801H465.056V367.598Z" fill="#0E0E0E" fill-opacity="0.05"/>
<path d="M556.247 367.598H555.164V407.801H556.247V367.598Z" fill="#0E0E0E" fill-opacity="0.05"/>
<path d="M647.433 367.598H646.35V407.801H647.433V367.598Z" fill="#0E0E0E" fill-opacity="0.05"/>
<path d="M746.631 447.879H0V449.189H746.631V447.879Z" fill="#0E0E0E" fill-opacity="0.05"/>
<path d="M75.8957 408.355H74.8125V448.559H75.8957V408.355Z" fill="#0E0E0E" fill-opacity="0.05"/>
<path d="M167.087 408.355H166.004V448.559H167.087V408.355Z" fill="#0E0E0E" fill-opacity="0.05"/>
<path d="M258.271 408.355H257.188V448.559H258.271V408.355Z" fill="#0E0E0E" fill-opacity="0.05"/>
<path d="M349.462 408.355H348.379V448.559H349.462V408.355Z" fill="#0E0E0E" fill-opacity="0.05"/>
<path d="M440.673 408.355H439.59V448.559H440.673V408.355Z" fill="#0E0E0E" fill-opacity="0.05"/>
<path d="M531.862 408.355H530.779V448.559H531.862V408.355Z" fill="#0E0E0E" fill-opacity="0.05"/>
<path d="M623.05 408.355H621.967V448.559H623.05V408.355Z" fill="#0E0E0E" fill-opacity="0.05"/>
<path d="M714.234 408.355H713.15V448.559H714.234V408.355Z" fill="#0E0E0E" fill-opacity="0.05"/>
<path d="M746.631 488.635H0V489.945H746.631V488.635Z" fill="#0E0E0E" fill-opacity="0.05"/>
<path d="M100.282 449.088H99.1992V489.291H100.282V449.088Z" fill="#0E0E0E" fill-opacity="0.05"/>
<path d="M191.47 449.088H190.387V489.291H191.47V449.088Z" fill="#0E0E0E" fill-opacity="0.05"/>
<path d="M282.655 449.088H281.572V489.291H282.655V449.088Z" fill="#0E0E0E" fill-opacity="0.05"/>
<path d="M373.845 449.088H372.762V489.291H373.845V449.088Z" fill="#0E0E0E" fill-opacity="0.05"/>
<path d="M465.056 449.088H463.973V489.291H465.056V449.088Z" fill="#0E0E0E" fill-opacity="0.05"/>
<path d="M556.247 449.088H555.164V489.291H556.247V449.088Z" fill="#0E0E0E" fill-opacity="0.05"/>
<path d="M647.433 449.088H646.35V489.291H647.433V449.088Z" fill="#0E0E0E" fill-opacity="0.05"/>
<path d="M75.8957 489.844H74.8125V530.047H75.8957V489.844Z" fill="#0E0E0E" fill-opacity="0.05"/>
<path d="M167.087 489.844H166.004V530.047H167.087V489.844Z" fill="#0E0E0E" fill-opacity="0.05"/>
<path d="M258.271 489.844H257.188V530.047H258.271V489.844Z" fill="#0E0E0E" fill-opacity="0.05"/>
<path d="M349.462 489.844H348.379V530.047H349.462V489.844Z" fill="#0E0E0E" fill-opacity="0.05"/>
<path d="M440.673 489.844H439.59V530.047H440.673V489.844Z" fill="#0E0E0E" fill-opacity="0.05"/>
<path d="M531.862 489.844H530.779V530.047H531.862V489.844Z" fill="#0E0E0E" fill-opacity="0.05"/>
<path d="M623.05 489.844H621.967V530.047H623.05V489.844Z" fill="#0E0E0E" fill-opacity="0.05"/>
<path d="M714.234 489.844H713.15V530.047H714.234V489.844Z" fill="#0E0E0E" fill-opacity="0.05"/>
</g>
<defs>
<clipPath id="clip0_858328_81089">
<rect width="746.631" height="499" fill="white"/>
</clipPath>
</defs>
</svg>
