<svg width="322" height="343" viewBox="0 0 322 343" fill="none" xmlns="http://www.w3.org/2000/svg">
<path d="M112.704 251.928H40.125V76.9062H112.704V251.928ZM41.2723 250.781H111.557V78.0538H41.2723V250.781Z" fill="#A0DDF2"/>
<path d="M271.704 251.928H121.787V76.9062H271.704V251.928ZM122.935 250.781H270.556V78.0538H122.935V250.781Z" fill="#A0DDF2"/>
<path d="M286.17 269.893H28.1663C26.2954 269.891 24.5016 269.147 23.1786 267.824C21.8557 266.501 21.1115 264.707 21.1094 262.836V62.2207H293.227V262.836C293.225 264.707 292.481 266.501 291.158 267.824C289.835 269.147 288.041 269.891 286.17 269.893ZM22.2569 63.3682V262.836C22.2587 264.403 22.8819 265.905 23.9897 267.013C25.0976 268.12 26.5996 268.744 28.1663 268.745H286.17C287.737 268.744 289.239 268.12 290.347 267.013C291.454 265.905 292.078 264.403 292.079 262.836V63.3682H22.2569Z" fill="#A0DDF2"/>
<path d="M293.227 63.3681H21.1094V49.6116C21.1115 47.7407 21.8556 45.9469 23.1786 44.6239C24.5016 43.3009 26.2954 42.5568 28.1663 42.5547H286.17C288.041 42.5568 289.835 43.301 291.158 44.624C292.481 45.9469 293.225 47.7407 293.227 49.6116V63.3681ZM22.2571 62.2206H292.079V49.6116C292.078 48.0449 291.455 46.5429 290.347 45.435C289.239 44.3272 287.737 43.704 286.17 43.7023H28.1663C26.5996 43.704 25.0975 44.3272 23.9897 45.435C22.8818 46.5429 22.2587 48.0449 22.2569 49.6116L22.2571 62.2206Z" fill="#A0DDF2"/>
<path d="M308.673 94.5547H233.582C232.658 94.5547 231.908 95.3041 231.908 96.2285V158.103C231.908 159.027 232.658 159.776 233.582 159.776H308.673C309.597 159.776 310.347 159.027 310.347 158.103V96.2285C310.347 95.3041 309.597 94.5547 308.673 94.5547Z" fill="#E0E7FF"/>
<path d="M299.066 130.197H296.971C296.62 128.411 295.93 126.709 294.938 125.184L296.453 123.67C296.535 123.588 296.6 123.491 296.645 123.384C296.689 123.277 296.712 123.163 296.712 123.047C296.712 122.932 296.689 122.817 296.645 122.71C296.6 122.604 296.535 122.506 296.453 122.425L293.189 119.161C293.107 119.079 293.01 119.014 292.903 118.97C292.796 118.926 292.682 118.903 292.566 118.903C292.45 118.903 292.336 118.926 292.229 118.97C292.122 119.014 292.025 119.079 291.943 119.161L290.457 120.643C288.935 119.644 287.244 118.929 285.467 118.532V116.388C285.467 115.902 285.08 115.428 284.594 115.428H279.977C279.491 115.428 279.075 115.902 279.075 116.388V118.484C277.296 118.854 275.6 119.543 274.066 120.517L272.556 119.002C272.475 118.92 272.378 118.855 272.271 118.811C272.165 118.767 272.05 118.744 271.935 118.744C271.819 118.744 271.705 118.767 271.598 118.811C271.491 118.855 271.394 118.92 271.313 119.002L268.05 122.266C267.885 122.432 267.792 122.656 267.792 122.89C267.792 123.123 267.885 123.347 268.051 123.512L269.533 125.048C268.53 126.571 267.816 128.104 267.422 130.088H265.278C264.791 130.088 264.416 130.376 264.416 130.862V135.478C264.416 135.965 264.791 136.259 265.278 136.259H267.374C267.743 138.056 268.432 139.773 269.407 141.328L267.891 142.869C267.725 143.037 267.633 143.263 267.633 143.498C267.633 143.734 267.725 143.96 267.891 144.128L271.155 147.398C271.237 147.48 271.334 147.545 271.44 147.59C271.547 147.634 271.662 147.657 271.778 147.658C271.893 147.658 272.008 147.636 272.115 147.592C272.222 147.547 272.319 147.483 272.401 147.401L273.876 145.921C275.394 146.921 277.081 147.637 278.854 148.034V150.178C278.854 150.664 279.264 151.138 279.751 151.138H284.367C284.854 151.138 285.247 150.664 285.247 150.178V148.082C287.029 147.712 288.729 147.023 290.266 146.049L291.783 147.565C291.948 147.73 292.172 147.823 292.406 147.823C292.639 147.823 292.864 147.73 293.029 147.565L296.293 144.3C296.459 144.135 296.551 143.911 296.551 143.677C296.551 143.444 296.459 143.22 296.293 143.054L294.812 141.629C295.791 140.119 296.506 138.451 296.923 136.7H299.067C299.554 136.7 299.906 136.192 299.906 135.705V131.089C299.905 130.602 299.553 130.197 299.066 130.197ZM282.161 140.914C280.652 140.914 279.176 140.466 277.921 139.628C276.667 138.789 275.689 137.598 275.111 136.203C274.534 134.809 274.382 133.275 274.677 131.795C274.971 130.315 275.698 128.955 276.765 127.888C277.832 126.821 279.192 126.094 280.672 125.799C282.152 125.505 283.687 125.656 285.081 126.234C286.475 126.811 287.667 127.789 288.505 129.044C289.344 130.299 289.791 131.774 289.791 133.283C289.791 135.307 288.987 137.248 287.556 138.679C286.125 140.11 284.184 140.914 282.161 140.914Z" fill="#56CBF2"/>
<path d="M268.402 114.556H266.906C266.656 113.281 266.163 112.066 265.455 110.978L266.536 109.898C266.595 109.839 266.641 109.77 266.673 109.694C266.704 109.618 266.721 109.536 266.721 109.453C266.721 109.371 266.704 109.289 266.673 109.213C266.641 109.137 266.595 109.068 266.536 109.009L264.207 106.68C264.089 106.562 263.929 106.496 263.762 106.496C263.595 106.496 263.435 106.562 263.317 106.68L262.257 107.738C261.171 107.024 259.964 106.514 258.696 106.231V104.701C258.696 104.354 258.42 104.016 258.072 104.016H254.778C254.43 104.016 254.134 104.354 254.134 104.701V106.197C252.864 106.461 251.654 106.953 250.559 107.648L249.481 106.566C249.423 106.508 249.354 106.462 249.278 106.43C249.202 106.399 249.12 106.382 249.038 106.382C248.955 106.382 248.874 106.399 248.797 106.43C248.721 106.462 248.652 106.508 248.594 106.566L246.265 108.896C246.147 109.014 246.081 109.174 246.081 109.341C246.081 109.508 246.148 109.668 246.266 109.785L247.324 110.881C246.583 111.965 246.07 113.189 245.817 114.478H244.287C243.94 114.478 243.672 114.683 243.672 115.031V118.325C243.672 118.672 243.94 118.883 244.287 118.883H245.783C246.047 120.165 246.538 121.391 247.234 122.5L246.153 123.6C246.035 123.72 245.968 123.881 245.968 124.049C245.968 124.217 246.035 124.378 246.153 124.498L248.482 126.832C248.6 126.951 248.76 127.017 248.926 127.018C249.093 127.018 249.253 126.952 249.372 126.835L250.424 125.778C251.507 126.491 252.711 127.002 253.977 127.286V128.816C253.977 129.163 254.269 129.501 254.617 129.501H257.911C258.259 129.501 258.539 129.163 258.539 128.816V127.32C259.811 127.056 261.024 126.565 262.122 125.869L263.204 126.951C263.262 127.009 263.331 127.056 263.408 127.087C263.484 127.119 263.566 127.135 263.648 127.135C263.731 127.135 263.813 127.119 263.889 127.087C263.965 127.056 264.035 127.009 264.093 126.951L266.423 124.621C266.541 124.503 266.607 124.343 266.607 124.177C266.607 124.01 266.541 123.85 266.423 123.732L265.365 122.715C266.064 121.637 266.574 120.447 266.872 119.197H268.402C268.749 119.197 269.001 118.834 269.001 118.487V115.192C269.004 115.111 268.991 115.03 268.963 114.953C268.935 114.877 268.891 114.807 268.835 114.748C268.78 114.688 268.712 114.641 268.638 114.608C268.563 114.575 268.483 114.557 268.402 114.556ZM256.337 122.204C255.26 122.204 254.207 121.885 253.311 121.286C252.416 120.688 251.718 119.837 251.306 118.842C250.893 117.847 250.785 116.752 250.996 115.696C251.206 114.64 251.724 113.669 252.486 112.908C253.248 112.146 254.218 111.627 255.274 111.417C256.331 111.207 257.426 111.315 258.421 111.727C259.416 112.139 260.266 112.837 260.865 113.733C261.463 114.628 261.783 115.681 261.783 116.758C261.783 118.203 261.209 119.588 260.187 120.609C259.166 121.63 257.781 122.204 256.337 122.204Z" fill="#6956F2"/>
<path d="M246.474 140.914H245.309C245.051 140.914 244.842 141.123 244.842 141.381V142.759C244.842 143.017 245.051 143.226 245.309 143.226H246.474C246.733 143.226 246.942 143.017 246.942 142.759V141.381C246.942 141.123 246.733 140.914 246.474 140.914Z" fill="#B0C2FF"/>
<path d="M246.474 145.504H245.309C245.051 145.504 244.842 145.713 244.842 145.971V147.349C244.842 147.607 245.051 147.816 245.309 147.816H246.474C246.733 147.816 246.942 147.607 246.942 147.349V145.971C246.942 145.713 246.733 145.504 246.474 145.504Z" fill="#B0C2FF"/>
<path d="M256.466 140.914H249.074C248.436 140.914 247.918 141.432 247.918 142.07V142.07C247.918 142.709 248.436 143.226 249.074 143.226H256.466C257.105 143.226 257.622 142.709 257.622 142.07V142.07C257.622 141.432 257.105 140.914 256.466 140.914Z" fill="#B0C2FF"/>
<path d="M260.412 145.504H249.074C248.436 145.504 247.918 146.022 247.918 146.66V146.66C247.918 147.299 248.436 147.816 249.074 147.816H260.412C261.051 147.816 261.568 147.299 261.568 146.66V146.66C261.568 146.022 261.051 145.504 260.412 145.504Z" fill="#B0C2FF"/>
<path d="M36.9948 56.7884C36.2379 56.7884 35.498 56.564 34.8687 56.1435C34.2394 55.723 33.7489 55.1253 33.4593 54.426C33.1696 53.7268 33.0938 52.9573 33.2415 52.215C33.3892 51.4727 33.7536 50.7908 34.2888 50.2556C34.824 49.7204 35.5059 49.356 36.2482 49.2083C36.9905 49.0606 37.76 49.1364 38.4593 49.4261C39.1585 49.7157 39.7562 50.2062 40.1767 50.8355C40.5972 51.4648 40.8216 52.2047 40.8216 52.9616C40.8205 53.9762 40.4169 54.9489 39.6995 55.6663C38.9821 56.3837 38.0094 56.7873 36.9948 56.7884ZM36.9948 50.2824C36.4649 50.2824 35.9468 50.4395 35.5062 50.7339C35.0656 51.0283 34.7222 51.4468 34.5194 51.9364C34.3166 52.426 34.2636 52.9647 34.367 53.4844C34.4704 54.0042 34.7255 54.4816 35.1003 54.8563C35.475 55.231 35.9524 55.4862 36.4721 55.5895C36.9919 55.6929 37.5306 55.6398 38.0202 55.437C38.5098 55.2342 38.9282 54.8908 39.2226 54.4502C39.517 54.0095 39.6741 53.4915 39.6741 52.9616C39.6733 52.2512 39.3908 51.5702 38.8885 51.0679C38.3862 50.5657 37.7051 50.2832 36.9948 50.2824Z" fill="#A0DDF2"/>
<path d="M53.2077 56.7884C52.4508 56.7884 51.7109 56.564 51.0816 56.1435C50.4523 55.723 49.9618 55.1253 49.6722 54.426C49.3825 53.7268 49.3067 52.9573 49.4544 52.215C49.6021 51.4727 49.9665 50.7908 50.5017 50.2556C51.0369 49.7204 51.7188 49.356 52.4611 49.2083C53.2034 49.0606 53.9729 49.1364 54.6721 49.4261C55.3714 49.7157 55.9691 50.2062 56.3896 50.8355C56.8101 51.4648 57.0345 52.2047 57.0345 52.9616C57.0334 53.9762 56.6298 54.9489 55.9124 55.6663C55.195 56.3837 54.2223 56.7873 53.2077 56.7884ZM53.2077 50.2824C52.6778 50.2824 52.1597 50.4395 51.7191 50.7339C51.2785 51.0283 50.935 51.4467 50.7322 51.9363C50.5294 52.4259 50.4764 52.9646 50.5797 53.4844C50.6831 54.0041 50.9383 54.4815 51.313 54.8563C51.6877 55.231 52.1651 55.4862 52.6849 55.5895C53.2046 55.6929 53.7434 55.6398 54.2329 55.437C54.7225 55.2342 55.141 54.8908 55.4354 54.4502C55.7298 54.0095 55.8869 53.4915 55.8869 52.9616C55.8861 52.2513 55.6036 51.5703 55.1013 51.068C54.599 50.5657 53.918 50.2832 53.2077 50.2824Z" fill="#A0DDF2"/>
<path d="M69.5535 56.7884C68.7966 56.7884 68.0567 56.564 67.4274 56.1435C66.7981 55.723 66.3076 55.1254 66.0179 54.4261C65.7282 53.7269 65.6524 52.9574 65.8001 52.2151C65.9477 51.4727 66.3122 50.7909 66.8474 50.2557C67.3826 49.7205 68.0644 49.356 68.8068 49.2083C69.5491 49.0606 70.3186 49.1364 71.0178 49.4261C71.7171 49.7157 72.3148 50.2062 72.7353 50.8355C73.1558 51.4648 73.3802 52.2047 73.3802 52.9616C73.3791 53.9762 72.9755 54.9488 72.2581 55.6663C71.5407 56.3837 70.5681 56.7872 69.5535 56.7884ZM69.5535 50.2824C69.0236 50.2824 68.5055 50.4395 68.0649 50.7339C67.6243 51.0283 67.2808 51.4467 67.078 51.9363C66.8752 52.4259 66.8222 52.9646 66.9256 53.4844C67.0289 54.0041 67.2841 54.4815 67.6588 54.8563C68.0335 55.231 68.5109 55.4862 69.0307 55.5895C69.5504 55.6929 70.0892 55.6398 70.5788 55.437C71.0684 55.2342 71.4868 54.8908 71.7812 54.4502C72.0756 54.0095 72.2327 53.4915 72.2327 52.9616C72.2319 52.2513 71.9494 51.5703 71.4471 51.068C70.9448 50.5657 70.2638 50.2832 69.5535 50.2824Z" fill="#A0DDF2"/>
<path d="M97.0308 93.0918H4.79072C2.14488 93.0918 0 95.2367 0 97.8825V161.842C0 164.488 2.14488 166.633 4.79072 166.633H97.0308C99.6767 166.633 101.822 164.488 101.822 161.842V97.8825C101.822 95.2367 99.6767 93.0918 97.0308 93.0918Z" fill="#E0EFFF"/>
<path d="M12.2476 102.158H10.7463C10.4139 102.158 10.1445 102.428 10.1445 102.76V104.535C10.1445 104.867 10.4139 105.137 10.7463 105.137H12.2476C12.58 105.137 12.8494 104.867 12.8494 104.535V102.76C12.8494 102.428 12.58 102.158 12.2476 102.158Z" fill="#A1CEFF"/>
<path d="M12.2476 108.07H10.7463C10.4139 108.07 10.1445 108.34 10.1445 108.672V110.447C10.1445 110.779 10.4139 111.049 10.7463 111.049H12.2476C12.58 111.049 12.8494 110.779 12.8494 110.447V108.672C12.8494 108.34 12.58 108.07 12.2476 108.07Z" fill="#A1CEFF"/>
<path d="M25.12 102.158H15.5987C14.7762 102.158 14.1094 102.825 14.1094 103.647C14.1094 104.47 14.7762 105.137 15.5987 105.137H25.12C25.9425 105.137 26.6093 104.47 26.6093 103.647C26.6093 102.825 25.9425 102.158 25.12 102.158Z" fill="#A1CEFF"/>
<path d="M26.7517 108.068H15.5987C14.7762 108.068 14.1094 108.735 14.1094 109.558C14.1094 110.38 14.7762 111.047 15.5987 111.047H26.7517C27.5743 111.047 28.241 110.38 28.241 109.558C28.241 108.735 27.5743 108.068 26.7517 108.068Z" fill="#A1CEFF"/>
<path d="M68.6428 150.258C78.4373 140.463 78.4373 124.583 68.6428 114.789C58.8484 104.994 42.9684 104.994 33.1739 114.789C23.3794 124.583 23.3794 140.463 33.1739 150.258C42.9684 160.052 58.8484 160.052 68.6428 150.258Z" fill="#7499F7"/>
<path d="M50.9102 107.443V132.524H75.9906C75.9906 118.672 64.7616 107.443 50.9102 107.443Z" fill="#6956F2"/>
<path d="M61.7832 155.131C66.0399 153.083 69.6317 149.874 72.1452 145.875C74.6587 141.875 75.9916 137.247 75.9907 132.523H50.9102L61.7832 155.131Z" fill="#56CBF2"/>
<path d="M59.7775 141.391C64.6747 136.493 64.6747 128.553 59.7775 123.656C54.8802 118.759 46.9403 118.759 42.043 123.656C37.1458 128.553 37.1458 136.493 42.043 141.391C46.9402 146.288 54.8803 146.288 59.7775 141.391Z" fill="#E0EFFF"/>
<path d="M85.8649 104.225H69.3447C68.5509 104.225 67.7895 104.54 67.2282 105.101C66.6669 105.663 66.3516 106.424 66.3516 107.218V115.922C66.3517 116.667 66.6296 117.385 67.1309 117.936C67.6323 118.486 68.3211 118.831 69.0627 118.901V122.228C69.0626 122.433 69.128 122.633 69.2492 122.799C69.3704 122.964 69.5412 123.087 69.7368 123.149C69.9324 123.211 70.1426 123.209 70.337 123.143C70.5314 123.077 70.6998 122.951 70.8178 122.784L73.5393 118.915H85.8649C86.2579 118.915 86.6472 118.837 87.0103 118.687C87.3734 118.537 87.7034 118.316 87.9813 118.038C88.2593 117.76 88.4797 117.43 88.6302 117.067C88.7806 116.704 88.858 116.315 88.858 115.922V107.218C88.858 106.424 88.5427 105.663 87.9813 105.101C87.42 104.54 86.6587 104.225 85.8649 104.225Z" fill="#FFC900"/>
<path d="M212.02 50.7812H144.709C142.881 50.7812 141.398 52.2636 141.398 54.0923V100.868C141.398 102.697 142.881 104.18 144.709 104.18H212.02C213.849 104.18 215.331 102.697 215.331 100.868V54.0923C215.331 52.2636 213.849 50.7812 212.02 50.7812Z" fill="#B8F8FF"/>
<path d="M192.242 91.518C199.463 84.2971 199.463 72.5896 192.242 65.3687C185.021 58.1477 173.313 58.1477 166.092 65.3687C158.871 72.5896 158.871 84.2971 166.092 91.518C173.313 98.739 185.021 98.739 192.242 91.518Z" fill="#56CBF2"/>
<path d="M177.196 87.7545C176.543 87.7545 175.918 87.4953 175.456 87.034L168.975 80.5524C168.746 80.324 168.565 80.0528 168.441 79.7543C168.318 79.4559 168.254 79.1359 168.254 78.8129C168.254 78.4898 168.318 78.1699 168.441 77.8714C168.565 77.5729 168.746 77.3017 168.974 77.0733C169.203 76.8448 169.474 76.6636 169.773 76.5399C170.071 76.4163 170.391 76.3527 170.714 76.3527C171.037 76.3526 171.357 76.4163 171.655 76.5399C171.954 76.6635 172.225 76.8447 172.454 77.0732L176.943 81.563L185.661 70.1057C185.856 69.8478 186.1 69.631 186.38 69.4676C186.659 69.3042 186.968 69.1975 187.288 69.1536C187.609 69.1097 187.935 69.1295 188.248 69.2118C188.561 69.294 188.854 69.4372 189.112 69.6331C189.369 69.829 189.585 70.0738 189.748 70.3534C189.911 70.633 190.017 70.942 190.06 71.2626C190.103 71.5833 190.083 71.9093 190 72.222C189.917 72.5347 189.773 72.828 189.577 73.085L179.154 86.784C178.941 87.0634 178.671 87.2941 178.362 87.4605C178.053 87.6269 177.712 87.7252 177.362 87.7489C177.306 87.7527 177.251 87.7546 177.196 87.7545Z" fill="white"/>
<path d="M149.468 56.7734H148.346C148.098 56.7734 147.896 56.9748 147.896 57.2233V58.5497C147.896 58.7982 148.098 58.9996 148.346 58.9996H149.468C149.717 58.9996 149.918 58.7982 149.918 58.5497V57.2233C149.918 56.9748 149.717 56.7734 149.468 56.7734Z" fill="#89E6F0"/>
<path d="M149.468 61.1914H148.346C148.098 61.1914 147.896 61.3928 147.896 61.6412V62.9677C147.896 63.2161 148.098 63.4175 148.346 63.4175H149.468C149.717 63.4175 149.918 63.2161 149.918 62.9677V61.6412C149.918 61.3928 149.717 61.1914 149.468 61.1914Z" fill="#89E6F0"/>
<path d="M159.085 56.7734H151.969C151.354 56.7734 150.855 57.2718 150.855 57.8865C150.855 58.5012 151.354 58.9996 151.969 58.9996H159.085C159.7 58.9996 160.198 58.5012 160.198 57.8865C160.198 57.2718 159.7 56.7734 159.085 56.7734Z" fill="#89E6F0"/>
<path d="M160.304 61.1914H151.969C151.354 61.1914 150.855 61.6897 150.855 62.3045C150.855 62.9192 151.354 63.4175 151.969 63.4175H160.304C160.919 63.4175 161.418 62.9192 161.418 62.3045C161.418 61.6897 160.919 61.1914 160.304 61.1914Z" fill="#89E6F0"/>
<path d="M272.852 351.301C272.852 351.301 267.144 314.602 258.172 324.388C249.201 334.175 252.464 378.213 252.464 378.213C252.464 378.213 247.571 363.534 241.046 366.796C234.522 370.058 241.046 395.339 241.046 395.339C241.046 395.339 232.891 390.446 229.629 395.339C226.367 400.233 238.921 405.941 238.921 405.941H297.01C297.01 405.941 310.366 404.31 315.259 396.155C320.153 388 298.949 396.155 298.949 396.155C298.949 396.155 327.492 358.641 320.968 347.224C314.444 335.806 294.871 361.903 294.871 361.903C294.871 361.903 314.444 305.632 299.764 296.661C285.085 287.69 272.852 332.544 272.852 351.301Z" fill="#AFD0F9"/>
<path d="M270.714 406.349C270.681 406.35 270.647 406.345 270.615 406.337C270.563 406.324 270.514 406.301 270.471 406.269C270.428 406.237 270.392 406.197 270.364 406.151C270.337 406.105 270.319 406.054 270.311 406.001C270.303 405.948 270.306 405.894 270.319 405.842L292.436 318.173C292.464 318.069 292.531 317.98 292.623 317.926C292.716 317.871 292.826 317.855 292.93 317.882C293.034 317.908 293.124 317.974 293.179 318.066C293.235 318.158 293.252 318.268 293.226 318.372L271.109 406.041C271.087 406.129 271.036 406.207 270.964 406.263C270.893 406.319 270.805 406.349 270.714 406.349Z" fill="#D0E2FC"/>
<path d="M277.497 375.932C273.725 375.932 270.473 374.569 267.823 371.877C263.977 367.968 261.424 361.387 260.234 352.315C259.698 348.188 259.485 344.026 259.597 339.866C259.602 339.761 259.647 339.662 259.722 339.589C259.798 339.517 259.899 339.476 260.004 339.477C260.01 339.476 260.016 339.477 260.022 339.477C260.076 339.48 260.128 339.493 260.177 339.515C260.225 339.538 260.269 339.57 260.305 339.609C260.341 339.649 260.369 339.695 260.387 339.745C260.405 339.796 260.414 339.849 260.411 339.903C260.401 340.126 259.514 362.272 268.405 371.306C270.997 373.939 274.22 375.21 277.934 375.11C278.041 375.109 278.145 375.15 278.224 375.223C278.302 375.297 278.349 375.399 278.353 375.506C278.357 375.614 278.317 375.719 278.242 375.798C278.168 375.877 278.066 375.923 277.958 375.926C277.803 375.93 277.649 375.932 277.497 375.932Z" fill="#D0E2FC"/>
<path d="M234.685 374.374C234.685 374.374 225.714 328.705 213.481 336.045C201.248 343.385 213.481 390.685 213.481 390.685C213.481 390.685 202.063 376.005 197.17 380.899C192.277 385.793 210.502 406.18 210.502 406.18H249.6C249.6 406.18 264.044 371.113 255.073 363.773C246.102 356.433 234.685 374.374 234.685 374.374Z" fill="#7499F7"/>
<path d="M126.761 178.653C113.012 178.904 112.252 189.71 108.187 198.993C105.682 204.714 105.365 207.886 103.262 213.176C107.775 219.931 114.762 224.503 120.001 230.805C120.518 231.538 117.892 236.455 118.422 237.178C123.258 233.361 128.053 223.734 130.106 216.921C132.79 208.019 137.597 194.672 136.34 186.812C135.083 178.951 131.362 178.569 126.761 178.653Z" fill="#00B5F2"/>
<path d="M70.7362 181.122C73.1592 177.482 75.0973 179.467 78.0958 182.611C81.0942 185.756 85.5016 190.859 88.4206 194.725C84.634 203.232 80.8436 211.707 76.7598 220.015C70.6105 216.85 62.8076 211.926 58.3542 207.277C53.9007 202.629 53.993 201.516 54.775 196.414C55.4741 191.851 57.1177 188.722 60.7428 186.399C65.1679 183.562 72.3078 189.94 75.5254 192.524C74.1432 189.488 68.3133 184.762 70.7362 181.122Z" fill="#FF826E"/>
<path d="M65.7093 204.127C61.9019 201.457 58.0764 198.866 54.377 196.361L54.6332 195.982C58.3343 198.489 62.1614 201.081 65.9718 203.753L65.7093 204.127Z" fill="#78284B"/>
<path d="M69.6508 197.03L69.2785 196.805C65.3592 194.435 61.3066 191.984 57.2148 189.769L57.4324 189.367C61.5338 191.587 65.5911 194.041 69.5149 196.414L69.8872 196.639L69.6508 197.03Z" fill="#78284B"/>
<path d="M114.756 212.655C106.189 206.375 97.4471 200.025 88.4437 194.297C84.2893 202.71 79.3221 210.708 74.7324 218.867C85.0119 223.757 94.7386 230.67 104.573 236.491C107.318 238.115 109.801 239.053 112.15 239.474C120.153 238.848 122.392 233.659 122.596 232.786C127.571 218.089 117.005 214.442 114.756 212.655Z" fill="#00B5F2"/>
<path d="M79.5105 221.259L79.1328 221.025C83.6811 213.676 88.3084 205.917 93.2792 197.305L93.6636 197.527C88.6911 206.143 84.0616 213.906 79.5105 221.259Z" fill="#A5DFF2"/>
<path d="M105.97 206.282L105.679 206.075C99.5822 201.722 92.1875 196.945 88.3223 194.486L88.5609 194.111C92.3712 196.535 99.6074 201.209 105.657 205.514C105.902 204.455 106.514 202.938 107.158 201.341C107.728 199.929 108.317 198.469 108.629 197.356C108.983 196.09 109.592 194.675 110.18 193.308C110.829 191.798 111.442 190.373 111.695 189.221L112.129 189.316C111.867 190.51 111.246 191.954 110.588 193.483C110.006 194.838 109.404 196.238 109.057 197.476C108.738 198.612 108.145 200.084 107.57 201.508C106.893 203.185 106.193 204.921 106.027 205.93L105.97 206.282Z" fill="#A5DFF2"/>
<path d="M164.581 183.053C174.223 172.657 183.052 179.5 192.982 182.755C199.102 184.762 201.758 186.698 207.27 188.717C209.361 196.829 208.073 205.343 209.317 213.701C209.525 214.602 211.103 216.812 211.295 217.717C205.037 218.811 198.347 215.031 191.698 211.927C183.011 207.872 169.447 202.394 164.268 196.025C159.09 189.657 161.354 186.532 164.581 183.053Z" fill="#00B5F2"/>
<path d="M202.385 193.194C207.25 183.381 212.242 173.42 217.768 163.904C225.562 169.636 233.904 174.603 241.977 179.896C234.885 189.249 229.259 200.193 223.016 210.186C221.273 212.976 219.445 215.013 217.494 216.512C209.869 219.735 205.358 216.046 204.756 215.344C193.23 204.248 201.174 195.896 202.385 193.194Z" fill="#00B5F2"/>
<path d="M249.313 165.782C247.017 171.196 244.846 174.748 241.354 179.539C233.412 174.986 225.593 170.268 218.133 164.93C218.779 160.317 220.696 154.439 221.975 150.366C223.254 146.292 223.756 143.248 227.837 145.804C231.917 148.361 228.801 154.073 228.752 157.811C228.752 157.811 233.494 147.348 236.939 142.507C239.15 139.399 240.538 140.638 240.914 140.859C242.738 141.934 243.758 142.89 238.385 153.031C238.385 153.031 251.137 161.481 249.313 165.782Z" fill="#FF826E"/>
<path d="M238.734 184.353C231.082 179.781 223.161 174.869 214.518 169.337L214.765 168.951C223.404 174.48 231.321 179.39 238.969 183.959L238.734 184.353Z" fill="#A5DFF2"/>
<path d="M190.593 265.598C192.21 306.452 186.617 348.959 186.664 390.35C176.052 390.223 165.439 390.094 154.827 389.963C153.397 348.597 156.462 307.089 154.395 266.013C166.46 265.896 178.528 265.804 190.593 265.598Z" fill="url(#paint0_linear_858209_7825)"/>
<path d="M124.689 265.165C120.263 306.975 109.189 348.126 104.59 390.174C117.133 389.931 129.467 390.381 142.122 390.399C142.913 378.359 154.794 289.694 157.759 287.359C160.723 285.024 159.242 269.053 160.023 265.224C148.1 265.375 136.502 265.114 124.689 265.165Z" fill="url(#paint1_linear_858209_7825)"/>
<path d="M191.033 265.061C189.864 272.079 188.542 290.6 179.499 292.552C170.456 294.504 136.954 294.502 130.055 289.103C123.155 283.703 124.707 271.379 124.24 264.072C136.516 264.274 151.721 264.507 163.037 264.689C174.353 264.87 180.525 264.931 191.033 265.061Z" fill="#332A75"/>
<path d="M122.194 289.04L121.756 288.245L121.947 288.139C133.354 281.848 137.13 272.045 136.86 264.967L136.852 264.749L137.759 264.715L137.768 264.933C137.953 269.805 136.463 274.693 133.457 279.069C130.736 283.029 126.908 286.44 122.386 288.934L122.194 289.04ZM122.349 288.415L122.366 288.446C124.805 287.085 127.065 285.424 129.091 283.501C127.058 285.414 124.793 287.065 122.349 288.415ZM137.304 265.169C137.433 270.1 135.654 276.278 130.824 281.713C131.642 280.798 132.401 279.832 133.097 278.821C136.004 274.589 137.469 269.873 137.338 265.168L137.304 265.169Z" fill="#4A3DAB"/>
<path d="M189.155 290.879L188.982 290.746C181.249 284.819 177.175 275.433 178.35 266.249L178.377 266.033L179.278 266.148L179.25 266.365C178.117 275.228 182.057 284.295 189.535 290.026L189.708 290.158L189.155 290.879ZM178.756 266.522C177.7 275.413 181.637 284.474 189.075 290.266L189.096 290.239C181.668 284.454 177.736 275.405 178.791 266.526L178.756 266.522Z" fill="#4A3DAB"/>
<path d="M185.159 206.461C183.491 192.326 186.236 185.075 178.881 180.244C171.571 175.443 169.118 176.418 162.736 175.819C163.109 172.913 162.855 169.799 163.023 166.551C157.492 164.656 151.995 162.727 146.474 160.842C146.605 165.673 146.667 171.114 146.839 175.569C141.259 176.344 137.992 176.262 129.2 177.899C123.722 178.919 123.763 180.162 123.844 192.769C124.124 209.659 123.019 252.529 122.051 273.361C131.558 273.913 141.559 274.245 151.618 274.423L155.341 264.532L158.331 274.518C169.427 274.642 180.479 274.594 190.902 274.454C190.998 257.06 186.826 220.595 185.159 206.461Z" fill="#00B5F2"/>
<path d="M146.814 175.806C146.701 170.817 146.589 165.826 146.477 160.834C151.991 162.733 157.501 164.659 163.019 166.544C162.961 169.95 162.727 172.361 162.737 175.819C165.209 175.998 144.972 175.784 146.814 175.806Z" fill="#FF826E"/>
<path d="M143.411 127.759C148.968 126.045 150.986 128.35 155 130.817C154.184 136.36 149.19 138.417 145.629 142.065C145.46 142.655 145.884 142.839 146.254 143.27C146.867 145.68 147.875 160.04 145.166 160.123C139.892 160.286 140.028 155.457 140.333 151.707C138.317 149.135 136.967 147.644 135.202 144.671C131.326 138.144 137.337 129.631 143.411 127.759Z" fill="#332A75"/>
<path d="M151.39 161.395C151.368 161.295 151.316 160.981 151.297 160.854C155.205 162.739 159.112 164.666 163.024 166.544C162.991 168.53 162.935 170.505 162.926 172.496C161.937 172.865 161.502 173.224 160.374 173.175C155.183 172.951 152.908 168.321 151.39 161.395Z" fill="#E53A24"/>
<path d="M170.496 141.766C170.876 146.637 171.396 152.89 170.733 158.227C170.071 163.564 169.204 170.674 159.572 167.894C153.208 166.057 145.788 164.726 145.049 158.584C144.228 151.771 144.458 148.588 144.148 142.499C152.975 142.387 161.685 142.036 170.496 141.766Z" fill="#FF826E"/>
<path d="M161.853 155.314C161.853 155.314 155.43 160.172 155.002 162.912C154.574 165.651 147.554 166.169 145.168 160.123C142.782 154.077 143.449 138.824 143.449 138.824L159.664 141.184L161.853 155.314Z" fill="#332A75"/>
<path d="M163.488 156.584C162.937 158.897 162.196 158.749 159.518 157.916C156.84 157.083 153.667 147.654 157.307 146.47C160.948 145.286 160.97 146.318 163.525 147.407C163.071 150.114 164.038 154.272 163.488 156.584Z" fill="#FF826E"/>
<path d="M164.33 141.023C164.278 143.335 164.43 153.42 161.247 153.226C158.064 153.033 158.163 143.199 158.078 140.648C160.168 140.651 162.255 140.776 164.33 141.023Z" fill="#332A75"/>
<path d="M145.63 142.066C149.158 138.435 154.247 136.319 154.949 130.851C155.062 130.923 154.889 130.86 155.181 131.019C157.681 122.477 168.609 120.993 173.513 125.998C177.021 129.579 175.566 132.098 173.521 135.767C175.509 134.084 177.785 133.592 178.101 138.099C178.276 140.587 174.63 147.65 168.104 147.244C161.578 146.839 152.706 146.229 146.319 142.817C146.172 143.087 146.316 143.045 146.281 143.195C145.85 142.931 145.473 142.61 145.63 142.066Z" fill="#332A75"/>
<path d="M190.686 274.46L190.382 265.935C189.667 243.189 186.756 221.169 184.299 204.525L184.731 204.461C187.19 221.116 190.103 243.153 190.818 265.92L191.122 274.444L190.686 274.46Z" fill="#A5DFF2"/>
<path d="M122.268 273.373L121.832 273.353C122.061 268.416 124.062 224.532 123.632 204.173L124.069 204.164C124.499 224.538 122.498 268.435 122.268 273.373Z" fill="#A5DFF2"/>
<path d="M137.564 176.601L143.358 170.049C143.358 170.049 158.137 170.567 165.524 171.086L168.505 176.6L151.293 179.121L137.564 176.601Z" fill="#A5DFF2"/>
<path d="M89.866 299.412H77.2246V324.695H89.866V299.412Z" fill="#A5DFF2"/>
<path d="M59.1602 347.057C64.0489 347.057 68.0119 343.094 68.0119 338.205C68.0119 333.317 64.0489 329.354 59.1602 329.354C54.2716 329.354 50.3086 333.317 50.3086 338.205C50.3086 343.094 54.2716 347.057 59.1602 347.057Z" fill="#D7DDF2"/>
<path d="M52.4679 335.205C50.4212 335.205 48.4582 334.392 47.0109 332.945C45.5636 331.497 44.7505 329.535 44.7505 327.488C44.7505 325.441 45.5636 323.478 47.0109 322.031C48.4582 320.583 50.4212 319.77 52.4679 319.77V312.053C50.1501 312.054 47.8623 312.577 45.7744 313.584C43.6864 314.59 41.8519 316.054 40.407 317.866C38.9622 319.678 37.944 321.793 37.4281 324.052C36.9123 326.312 36.912 328.659 37.4272 330.919C37.9425 333.179 38.96 335.293 40.4044 337.106C41.8488 338.919 43.6829 340.383 45.7706 341.39C47.8583 342.397 50.1459 342.921 52.4637 342.923C54.7816 342.925 57.07 342.404 59.1593 341.401L55.8097 334.436C54.7681 334.941 53.6256 335.204 52.4679 335.205Z" fill="#7499F7"/>
<path d="M235.403 237.178C235.251 241.535 236.333 245.846 238.524 249.616C240.715 253.385 243.926 256.459 247.787 258.484L258.542 237.986L235.403 237.178Z" fill="#A5DFF2"/>
<path d="M241.526 281.977C246.104 281.977 249.815 278.266 249.815 273.688C249.815 269.11 246.104 265.398 241.526 265.398C236.948 265.398 233.236 269.11 233.236 273.688C233.236 278.266 236.948 281.977 241.526 281.977Z" fill="#D7DDF2"/>
<path d="M94.2207 23.4219V49.7078H120.507C120.507 35.1906 108.738 23.4219 94.2207 23.4219Z" fill="#7499F7"/>
<path d="M130.038 16.2852H109.344V36.9791H130.038V16.2852Z" fill="#D7DDF2"/>
<path d="M106.683 8.29844C106.728 8.24729 106.772 8.19636 106.816 8.14445C106.982 7.94765 107.144 7.74707 107.298 7.54021C107.314 7.51955 107.328 7.49803 107.343 7.47727C107.483 7.28782 107.616 7.09362 107.745 6.89628C107.783 6.83745 107.821 6.77827 107.859 6.71872C107.984 6.51933 108.105 6.31679 108.219 6.11015C108.232 6.08701 108.246 6.06473 108.259 6.04149C108.383 5.81387 108.499 5.58095 108.609 5.34511C108.638 5.28304 108.666 5.22022 108.694 5.15761C108.782 4.96081 108.865 4.76141 108.944 4.55942C108.963 4.50925 108.984 4.45983 109.003 4.40933C109.094 4.16473 109.177 3.91661 109.253 3.66494C109.271 3.60655 109.286 3.5473 109.303 3.48858C109.363 3.28161 109.417 3.07256 109.465 2.86141C109.481 2.79653 109.497 2.73165 109.511 2.66526C109.567 2.4052 109.616 2.14265 109.655 1.87686C109.662 1.83361 109.666 1.78895 109.672 1.74516C109.704 1.51606 109.729 1.28494 109.748 1.05181C109.754 0.978385 109.76 0.904855 109.764 0.831C109.782 0.556019 109.795 0.279523 109.795 0H103.478C103.477 1.18908 103.141 2.3538 102.507 3.35998C101.874 4.36616 100.969 5.17286 99.8965 5.68714L102.638 11.3878C102.874 11.2741 103.104 11.1508 103.332 11.0233C103.393 10.989 103.453 10.9539 103.514 10.9186C103.705 10.8066 103.894 10.6901 104.08 10.5689C104.115 10.5458 104.151 10.524 104.186 10.5006C104.4 10.3572 104.608 10.2064 104.813 10.0506C104.865 10.0115 104.915 9.97082 104.966 9.93081C105.13 9.80105 105.292 9.66768 105.45 9.53072C105.495 9.49125 105.541 9.45275 105.586 9.41274C105.776 9.24189 105.962 9.06564 106.142 8.88397C106.179 8.84634 106.215 8.80709 106.252 8.76903C106.399 8.61562 106.543 8.45876 106.683 8.29844Z" fill="#A5DFF2"/>
<defs>
<linearGradient id="paint0_linear_858209_7825" x1="154.395" y1="327.954" x2="190.887" y2="327.954" gradientUnits="userSpaceOnUse">
<stop stop-color="#0E218A"/>
<stop offset="1" stop-color="#1F72D2"/>
</linearGradient>
<linearGradient id="paint1_linear_858209_7825" x1="104.59" y1="327.759" x2="160.023" y2="327.759" gradientUnits="userSpaceOnUse">
<stop stop-color="#0E218A"/>
<stop offset="1" stop-color="#1F72D2"/>
</linearGradient>
</defs>
</svg>
