<svg width="349" height="288" viewBox="0 0 349 288" fill="none" xmlns="http://www.w3.org/2000/svg">
<path d="M329.3 67.9642C329.122 67.3489 328.717 66.8243 328.166 66.4961C319.871 78.6228 298.972 91.1434 298.972 91.1434C298.972 91.1434 296.417 92.6115 297.778 94.7241C299.139 96.8367 300.249 94.4854 300.881 92.3369C317.639 83.2658 329.682 69.0384 329.3 67.9642Z" fill="url(#paint0_linear_858209_7544)"/>
<path d="M344.777 50.6211C346.349 51.8799 347.76 53.327 348.979 54.9299C345.184 63.9015 338.489 71.3406 329.965 76.0561C328.32 75.3508 326.899 74.2072 325.859 72.7499L344.777 50.6211Z" fill="url(#paint1_linear_858209_7544)"/>
<path d="M323.08 72.8579C323.548 73.292 324.046 73.6909 324.572 74.0514C324.916 74.3009 325.337 74.4209 325.761 74.3904C326.184 74.3598 326.584 74.1806 326.888 73.8843C330.075 70.8407 340.59 60.4089 345.46 51.2065C345.551 51.0039 345.573 50.7768 345.521 50.5607C345.469 50.3447 345.347 50.152 345.173 50.0129C344.483 49.4623 343.744 48.9749 342.965 48.5567C342.755 48.4647 342.519 48.4514 342.3 48.5194C342.08 48.5873 341.893 48.7319 341.772 48.9267C336.646 56.9403 330.396 64.1756 323.212 70.411C323.036 70.5592 322.893 70.7417 322.791 70.9472C322.689 71.1527 322.63 71.3769 322.618 71.6061C322.605 71.8353 322.64 72.0646 322.72 72.2798C322.799 72.4951 322.922 72.6918 323.08 72.8579Z" fill="url(#paint2_linear_858209_7544)"/>
<path d="M311.919 81.1654C311.919 81.1654 312.361 107.03 328.259 120.148C344.158 133.265 325.765 103.545 321.695 88.6849C317.624 73.8249 311.418 75.484 311.919 81.1654Z" fill="url(#paint3_linear_858209_7544)"/>
<path d="M314.857 82.633C315.601 82.633 316.205 82.0292 316.205 81.2843C316.205 80.5394 315.601 79.9355 314.857 79.9355C314.112 79.9355 313.508 80.5394 313.508 81.2843C313.508 82.0292 314.112 82.633 314.857 82.633Z" fill="url(#paint4_linear_858209_7544)"/>
<path d="M183.361 238.096C183.361 238.096 190.857 256.656 182.645 259.795C173.824 263.173 159.298 268.353 159.298 268.353C159.298 268.353 158.272 259.473 164.837 255.963C171.186 252.574 171.043 243.777 171.043 243.777L183.361 238.096Z" fill="#FAAF9A"/>
<path d="M159.297 268.353C159.297 268.353 160.288 284.884 164.895 289.468C165.897 290.47 167.533 290.876 167.688 289.468C168.308 283.977 163.988 269.881 163.988 269.881C163.988 269.881 169.645 282.414 171.34 282.08C172.319 281.901 176.305 279.418 179.552 277.305C181.879 275.801 181.688 273.056 180.745 270.454C179.611 267.303 179.098 264.856 179.289 264.009C179.91 261.299 182.87 259.652 182.87 259.652L167.759 260.846L159.297 268.353Z" fill="#FAAF9A"/>
<path d="M178.705 277.639L173.775 265.059C173.775 265.059 175.828 273.64 178.705 277.639Z" fill="#1E1916"/>
<path d="M174.982 280.242L167.82 266.193C167.82 266.193 171.735 276.542 174.982 280.242Z" fill="#1E1916"/>
<path d="M183.409 238.347L171.163 244.315C169.241 232.295 151.087 194.817 149.941 191.535C143.365 172.629 170.494 166.78 175.973 181.807C177.871 187.059 183.409 238.347 183.409 238.347Z" fill="#FAAF9A"/>
<path d="M163.356 121.459C146.574 133.025 133.147 167.197 145.261 170.873C145.261 170.873 143.471 176.232 141.597 178.512C141.597 178.512 160.157 191.391 179.063 191.402C179.063 191.402 180.257 186.843 181.916 185.888C181.916 185.888 191.99 188.025 196.931 176.34C201.873 164.655 194.269 151.991 197.731 138.002C202.792 117.58 181.761 108.771 163.356 121.459Z" fill="url(#paint5_linear_858209_7544)"/>
<path d="M153.736 185.817L154.214 184.743C150.135 182.921 146.2 180.79 142.445 178.369C143.841 176.065 144.974 173.61 145.823 171.053L146.014 170.48L145.429 170.301C143.197 169.632 141.848 167.77 141.359 164.775C139.712 154.188 150.442 131.068 163.691 121.949L163.022 120.982C149.213 130.531 138.459 153.818 140.201 164.954C140.691 168.129 142.183 170.277 144.522 171.232C143.703 173.673 142.567 175.996 141.144 178.143L140.738 178.632L141.263 178.99C145.224 181.609 149.396 183.892 153.736 185.817Z" fill="#1E1916"/>
<path d="M175.314 183.049C176.774 183.046 178.228 182.869 179.646 182.524L179.372 181.33C166.684 184.362 160.454 172.45 160.394 172.331L160.167 171.889L159.69 172.044C153.412 173.978 148.136 166.076 148.088 165.957L147.098 166.602C147.336 166.948 152.672 174.957 159.582 173.286C160.716 175.291 165.908 183.049 175.314 183.049Z" fill="#1E1916"/>
<path d="M143.627 377.601C156.553 359.829 164.18 327.805 172.989 301.057C178.205 285.207 181.415 261.526 175.782 246.678C166.46 222.079 182.382 204.903 188.195 195.355C194.008 185.806 243.457 173.274 253.173 180.459C267.138 190.783 276.293 201.012 278.095 234.325C280.482 278.666 265.753 401.055 265.753 401.055C241.709 406.183 216.959 407.108 192.599 403.788C190.57 394.001 190.845 370.309 190.845 370.309L171.067 392.163C162.664 382.865 150.824 379.117 143.627 377.601Z" fill="url(#paint6_linear_858209_7544)"/>
<path d="M189.555 88.0397C192.359 92.814 197.42 96.1679 196.823 85.8077C196.107 73.1201 233.072 67.3074 218.869 56.9949C197.647 41.5978 178.383 68.7635 189.555 88.0397Z" fill="#1E1916"/>
<path d="M217.377 95.1067V114.944C216.291 116.555 210.371 123.573 195.451 113.75V86.8711C202.593 90.0408 209.914 92.7907 217.377 95.1067Z" fill="#FAAF9A"/>
<path d="M217.377 101.147V109.943C205.764 110.182 205.441 98.5445 205.441 98.5684C208.952 100.903 213.216 101.824 217.377 101.147Z" fill="#ED7662"/>
<path d="M216.186 103.855C209.872 103.855 198.366 95.2137 195.811 89.4488C194.904 87.3839 195.262 81.9292 196.098 79.2915C198.712 71.02 200.8 63.5124 207.222 61.2566C209.931 60.3017 219.766 63.6437 222.249 64.1331C227.023 65.1476 229.064 69.9577 229.112 78.3247C229.172 87.73 227.31 103.927 216.186 103.855Z" fill="#FAAF9A"/>
<path d="M220.411 89.0663C221.02 88.9111 224.075 88.004 224.553 86.5597C224.628 86.3332 224.643 86.091 224.597 85.8568C224.551 85.6226 224.445 85.4042 224.29 85.2229C222.094 82.4539 222.488 77.9183 222.619 76.7844C223.38 76.414 224.208 76.2018 225.053 76.1608C225.899 76.1198 226.743 76.2507 227.537 76.5457L227.907 75.4237C226.907 75.044 225.835 74.893 224.769 74.9818C223.703 75.0706 222.671 75.397 221.748 75.9369L221.545 76.0802V76.3308C221.545 76.5695 220.578 82.3822 223.419 85.951C223.526 86.0943 223.502 86.1539 223.49 86.1897C223.288 86.7865 221.426 87.5862 220.148 87.9324L220.411 89.0663Z" fill="#1E1916"/>
<path d="M197.3 74.7188C197.3 74.7188 200.964 79.0634 204.008 72.3316C207.732 64.1199 220.79 65.3851 226.185 66.3638C226.185 66.3638 226.937 66.9367 228.989 74.122C228.989 74.122 232.26 59.9185 216.17 56.3616C200.511 52.948 196.321 68.1661 197.3 74.7188Z" fill="#1E1916"/>
<path d="M201.67 78.7431C202.026 79.8539 202.044 81.045 201.722 82.166C201.4 83.2869 200.754 84.2873 199.863 85.0406C198.973 85.794 197.879 86.2664 196.721 86.3982C195.562 86.5299 194.39 86.3152 193.354 85.781C192.317 85.2468 191.462 84.4172 190.897 83.3971C190.332 82.377 190.082 81.2123 190.179 80.0501C190.275 78.8879 190.715 77.7806 191.441 76.8681C192.167 75.9556 193.147 75.279 194.258 74.9237C195.748 74.4506 197.364 74.5869 198.753 75.3028C200.142 76.0186 201.191 77.2556 201.67 78.7431Z" fill="#FAAF9A"/>
<path d="M195.571 83.886C195.889 83.9052 196.206 83.8403 196.491 83.6978C196.776 83.5553 197.019 83.3403 197.194 83.0744C197.3 82.9379 197.375 82.7801 197.414 82.6119C197.453 82.4436 197.455 82.2689 197.419 82.0998C197.384 81.9307 197.313 81.7713 197.21 81.6325C197.107 81.4937 196.975 81.3789 196.824 81.296C196.502 80.9976 196.323 80.8424 196.442 80.3292C196.552 79.928 196.776 79.5672 197.087 79.2908C197.707 78.6343 198.173 77.942 197.087 76.6411C196.918 76.4329 196.705 76.2649 196.464 76.1493C196.222 76.0337 195.958 75.9733 195.69 75.9727C194.007 75.9727 192.109 78.0733 191.895 78.3598L192.778 79.1356C193.446 78.3837 194.819 77.1901 195.69 77.1901C195.788 77.1887 195.884 77.2107 195.971 77.2543C196.059 77.2979 196.134 77.3619 196.191 77.4407C196.705 78.0495 196.681 78.0733 196.263 78.5269C195.804 78.9558 195.477 79.5064 195.32 80.1144C195.217 80.4983 195.233 80.9044 195.365 81.2794C195.497 81.6543 195.739 81.9805 196.06 82.215C196.137 82.2766 196.209 82.3445 196.275 82.418C196.275 82.418 196.275 82.4179 196.215 82.4896C195.845 83.0863 194.52 82.4896 194.508 82.4896L194.007 83.5518C194.5 83.769 195.032 83.8827 195.571 83.886Z" fill="#1E1916"/>
<path d="M222.758 92.469C222.758 92.469 216.934 95.1784 211.67 91.7051C211.67 91.7051 213.806 97.5775 217.316 97.2552C220.825 96.9329 222.758 92.469 222.758 92.469Z" fill="#1E1916"/>
<path d="M216.734 76.3556L217.677 75.6634C217.581 75.5321 215.29 72.5004 209.238 74.4698L209.608 75.5798C214.824 73.9088 216.65 76.2602 216.734 76.3556Z" fill="#1E1916"/>
<path d="M210.525 79.3739C210.523 79.7692 210.638 80.1562 210.856 80.4858C211.074 80.8154 211.386 81.0727 211.75 81.2251C212.115 81.3774 212.517 81.4179 212.905 81.3414C213.292 81.2649 213.649 81.0748 213.928 80.7953C214.208 80.5158 214.398 80.1596 214.474 79.7718C214.551 79.384 214.51 78.9823 214.358 78.6176C214.206 78.2529 213.948 77.9417 213.619 77.7236C213.289 77.5054 212.902 77.3903 212.507 77.3926C211.981 77.3926 211.477 77.6014 211.106 77.9729C210.734 78.3445 210.525 78.8485 210.525 79.3739Z" fill="#1E1916"/>
<path d="M223.346 79.3739C223.343 79.7692 223.459 80.1562 223.677 80.4858C223.895 80.8154 224.206 81.0727 224.571 81.2251C224.935 81.3774 225.337 81.4179 225.725 81.3414C226.113 81.2649 226.469 81.0748 226.748 80.7953C227.028 80.5158 227.218 80.1596 227.295 79.7718C227.371 79.384 227.331 78.9823 227.178 78.6176C227.026 78.2529 226.769 77.9417 226.439 77.7236C226.109 77.5054 225.722 77.3903 225.327 77.3926C224.802 77.3926 224.298 77.6014 223.926 77.9729C223.554 78.3445 223.346 78.8485 223.346 79.3739Z" fill="#1E1916"/>
<path d="M188.731 115.48C188.731 115.48 190.927 107.483 195.021 107.006C199.115 106.528 217.579 105.478 219.465 107.304C220.702 108.659 221.583 110.299 222.032 112.078C222.032 112.078 239.935 105.955 249.734 119.884C257.003 130.221 259.39 168.475 253.22 181.628C253.22 181.628 228.489 174.383 187.979 195.891C163.773 208.746 176.652 152.672 174.659 143.075C172.558 133.157 178.86 118.368 188.731 115.48Z" fill="url(#paint7_linear_858209_7544)"/>
<path d="M181.629 198.326C183.949 198.213 186.206 197.537 188.206 196.357L187.657 195.33C183.754 197.395 180.662 197.717 178.466 196.249C171.746 191.809 173.429 172.187 174.659 157.864C175.244 150.941 175.721 145.475 175.184 142.909C173.214 133.36 179.254 118.87 188.838 116.041L188.516 114.848C178.371 117.844 171.961 133.133 174.038 143.088C174.527 145.475 174.038 151.144 173.489 157.697C172.224 172.318 170.517 192.311 177.822 197.168C178.943 197.933 180.272 198.337 181.629 198.326Z" fill="#1E1916"/>
<path d="M271.745 200.952C265.717 201.311 259.709 199.984 254.394 197.118C249.079 194.253 244.667 189.964 241.655 184.731C234.064 171.363 258.257 151.621 263.593 155.608C263.593 155.608 280.577 179.288 280.744 186.832C280.911 194.375 276.221 200.582 271.745 200.952Z" fill="#FAAF9A"/>
<path d="M333.308 97.7925C322.853 98.2818 315.464 98.6518 315.464 98.6518C315.464 98.6518 307.408 102.233 308.375 116.746C309.341 131.26 305.82 136.572 305.82 136.572L322.888 137.92C324.412 134.819 325.312 131.449 325.538 128.002C325.717 126.402 324.464 118.931 324.846 117.964C325.037 117.486 327.579 116.293 331.005 115.481C333.714 114.825 334.585 114.98 334.466 112.199C334.347 108.308 334.108 103.569 333.702 102.65C333.547 102.292 332.759 102.054 331.637 101.886C332.342 101.687 333.019 101.403 333.654 101.039C334.92 100.347 334.729 97.7208 333.308 97.7925Z" fill="#FAAF9A"/>
<path d="M334.491 110.789L321.254 111.983C325.635 111.291 330.057 110.892 334.491 110.789Z" fill="#1E1916"/>
<path d="M330.457 101.396L317.221 102.59C321.602 101.903 326.024 101.504 330.457 101.396Z" fill="#1E1916"/>
<path d="M334.348 106.744L318.641 106.971C318.641 106.971 329.371 106.171 334.348 106.744Z" fill="#1E1916"/>
<path d="M308.089 134.781L323.223 136.954C319.356 148.591 292.453 192.24 276.554 199.461C267.543 203.543 260.835 198.948 258.281 195.57C252.098 187.37 258.579 177.738 266.636 169.514C267.71 168.368 308.089 134.781 308.089 134.781Z" fill="#FAAF9A"/>
<path d="M214.489 135.305C212.316 155.596 229.468 188.025 240.151 181.234C240.151 181.234 243.039 186.092 243.552 188.992C243.552 188.992 265.419 183.323 277.748 169C277.748 169 275.063 165.121 275.433 163.235C275.433 163.235 283.632 156.992 277.963 145.618C272.294 134.243 257.768 131.724 249.437 120.027C237.262 102.888 216.876 113.093 214.489 135.305Z" fill="url(#paint8_linear_858209_7544)"/>
<path d="M243.086 189.732L243.707 189.577C248.272 188.276 252.723 186.604 257.015 184.576L256.514 183.514C252.466 185.417 248.281 187.013 243.993 188.288C243.16 185.727 242.039 183.268 240.651 180.959L240.341 180.434L239.84 180.757C237.858 182.022 235.555 181.843 232.989 180.243C223.882 174.598 213.354 151.383 215.085 135.389L213.891 135.27C212.101 151.98 222.784 175.302 232.356 181.246C235.077 182.941 237.691 183.215 239.923 182.058C241.25 184.266 242.274 186.642 242.967 189.124L243.086 189.732Z" fill="#1E1916"/>
<path d="M238.17 177.081C238.588 177.14 248.184 178.334 251.383 171.984C253.901 172.438 265.706 173.882 271.435 162.758L270.396 162.221C264.429 173.81 251.717 170.874 251.192 170.755L250.714 170.635L250.511 171.089C247.886 177.116 238.421 175.935 238.325 175.923L238.17 177.081Z" fill="#1E1916"/>
<path d="M208.89 50.3233C206.634 43.6751 198.554 37.0508 185.95 46.9813C172.546 57.6041 166.984 113.607 166.59 151.001C166.59 151.001 170.266 153.985 176.377 152.445C176.377 152.445 178.144 134.029 178.478 131.224C178.478 131.224 178.478 147.671 179.134 150.906C179.134 150.906 183.909 153.293 187.489 149.843C187.489 149.843 183.479 88.0999 194.758 71.5092C205.441 55.9331 211.253 57.2699 208.89 50.3233Z" fill="#1E1916"/>
<path d="M209.273 48.8668C209.273 48.8668 211.29 51.0033 209.798 52.9966C209.798 52.9966 199.772 52.9966 195.272 58.296C194.589 57.6865 194.043 56.9399 193.669 56.1049C193.294 55.2698 193.1 54.3652 193.1 53.4501C193.1 53.4501 201.86 46.4319 209.273 48.8668Z" fill="url(#paint9_linear_858209_7544)"/>
<path d="M193.565 356.32C193.791 354.255 194.042 352.047 194.305 349.732C197.73 319.821 203.459 269.762 191.512 243.253C179.039 215.586 201.132 196.155 201.359 195.964L200.595 195.068C200.356 195.271 177.618 215.276 190.437 243.742C202.254 270.001 196.548 319.809 193.135 349.6C192.872 351.916 192.622 354.124 192.395 356.189L193.565 356.32Z" fill="white"/>
<path d="M191.716 186.796C207.829 175.326 205.18 159.583 205.156 159.428L203.962 159.643C203.962 159.786 206.481 174.813 191 185.901L191.716 186.796Z" fill="#1E1916"/>
<path d="M126.88 240.901C133.003 256.465 111.28 450.408 111.28 450.408C111.28 450.408 91.9088 451.793 62.2246 438.914C62.2246 438.914 65.6263 419.566 66.0918 408.383C67.9299 364.519 66.5095 280.838 67.3928 253.075C68.4073 221.386 121.82 228.046 126.88 240.901Z" fill="url(#paint10_linear_858209_7544)"/>
<path d="M126.954 282.043C119.458 284.43 112.344 285.791 105.004 283.475C103.392 289.538 108.764 296.055 111.031 301.116C114.528 308.886 111.246 316.632 112.702 324.761C114.075 332.447 119.267 338.809 120.102 346.711C120.998 355.28 125.02 386.242 125.33 386.683C126.763 374.938 127.073 372.205 128.911 356.426C131.179 336.47 134.76 304.78 134.879 279.691C132.169 280.801 129.293 281.279 126.954 282.043Z" fill="#1E1916"/>
<path d="M171.305 244.744C179.063 260.26 177.965 323.938 176.533 356.427C174.73 397.533 174.599 451.53 174.599 451.53C174.599 451.53 156.158 458.537 123.276 450.528C123.276 450.528 124.469 427.301 124.469 416.499C124.696 370.917 113.954 287.939 111.925 260.141C109.669 228.404 164.86 231.889 171.305 244.744Z" fill="url(#paint11_linear_858209_7544)"/>
<path d="M42.0527 133.11C39.9759 133.193 42.0527 143.231 42.6495 156.838C43.2463 170.445 45.3589 181.39 47.4238 181.306C49.4887 181.223 50.7181 170.123 50.1452 156.516C49.5723 142.909 44.1176 133.026 42.0527 133.11Z" fill="black"/>
<path d="M112.534 107.494C117.308 112.746 119.826 126.317 109.776 137.715C99.7266 149.114 70.5676 169.846 47.6391 181.269C47.6391 181.269 51.4227 153.578 41.9219 133.132C41.9219 133.132 68.3834 111.326 81.5843 105.68C94.7852 100.034 107.246 101.693 112.534 107.494Z" fill="url(#paint12_linear_858209_7544)"/>
<path d="M2.5338 77.5249C4.14512 74.9826 3.59608 73.6697 6.46066 72.0464C8.27552 70.9455 9.84064 69.4779 11.0559 67.7376C7.11607 64.8803 3.67935 61.3871 0.886671 57.4013C-1.05885 54.298 1.93702 53.8205 3.42898 54.9067C6.80679 57.4013 14.3621 61.7697 17.9309 65.3385L18.0144 65.434C20.8551 67.5466 26.1069 78.5633 26.7275 80.9504C27.6585 84.5312 25.9398 85.498 26.9782 94.6765C27.0617 110.42 45.5263 151.849 45.6576 157.805C46.0634 176.902 15.5199 180.089 10.1488 162.4C5.87581 148.316 6.22194 113.619 9.77879 99.3434C11.6527 91.9194 5.15966 89.1742 2.00863 86.2141C-1.1424 83.254 0.922479 80.0791 2.5338 77.5249Z" fill="#FAAF9A"/>
<path d="M26.1307 86.2502L30.905 80.712C32.3254 79.0648 32.206 77.1312 32.6357 75.0544C32.782 74.384 32.7249 73.6852 32.4719 73.0473C32.2189 72.4095 31.7814 71.8616 31.2153 71.4737L25.3191 67.3917C25.1039 67.2427 24.8598 67.1408 24.6026 67.0925C24.3454 67.0442 24.0809 67.0507 23.8264 67.1115C23.5719 67.1723 23.333 67.2861 23.1254 67.4455C22.9179 67.6048 22.7462 67.8061 22.6216 68.0362C22.2927 68.6516 22.1708 69.3566 22.274 70.0467C22.3772 70.7368 22.7 71.3753 23.1945 71.8676L26.262 75.4483L22.9439 78.0861L26.1307 86.2502Z" fill="#FAAF9A"/>
<path d="M1.3418 85.8324C1.3418 85.8324 10.6755 89.9502 6.83223 83.5527C6.42642 82.8962 2.43988 77.5848 2.43988 77.5848C2.43988 77.5848 8.1571 84.2092 10.9739 83.1827C13.7908 82.1562 13.0985 77.9429 7.1545 72.8105C9.35912 74.7973 11.7584 76.5568 14.3159 78.0623C17.4312 79.6855 19.3289 73.8847 11.8572 68.5137L1.3418 85.8324Z" fill="#FAAF9A"/>
<path d="M6.11502 87.5633C4.38098 87.4091 2.6858 86.9611 1.10202 86.2384C0.995273 86.1866 0.912352 86.0959 0.870202 85.985C0.828051 85.8741 0.829853 85.7513 0.875239 85.6416C0.897195 85.5871 0.930114 85.5376 0.971958 85.4963C1.0138 85.455 1.06368 85.4227 1.1185 85.4014C1.17333 85.3802 1.23193 85.3704 1.29069 85.3727C1.34944 85.375 1.4071 85.3894 1.46009 85.4148C3.42948 86.2742 6.49697 87.1455 7.15343 86.3936C7.3086 86.2145 7.53537 85.6178 6.42535 83.7797C6.10309 83.2425 3.1669 79.3276 2.05688 77.8118L2.74915 77.2508C4.28886 79.0292 8.71701 83.4693 10.7938 82.7054C11.1137 82.6165 11.4031 82.4415 11.6304 82.1995C11.8577 81.9574 12.0142 81.6577 12.0829 81.3328C12.3455 79.8647 11.2354 77.0956 7.36827 73.5985C7.06988 73.3478 6.89084 73.1807 6.85504 73.1449L7.45182 72.4765L7.91732 72.8823C9.93718 74.6932 12.1368 76.293 14.482 77.6566C14.6164 77.7661 14.773 77.8449 14.941 77.8877C15.1089 77.9305 15.2842 77.9361 15.4546 77.9043C15.625 77.8725 15.7864 77.804 15.9276 77.7035C16.0688 77.603 16.1864 77.473 16.2723 77.3224C17.1675 75.8663 16.2723 72.2736 11.498 68.8481C11.4051 68.7769 11.3433 68.6726 11.3255 68.5569C11.3077 68.4413 11.3353 68.3232 11.4025 68.2274C11.4359 68.1792 11.4786 68.1381 11.528 68.1065C11.5774 68.075 11.6326 68.0536 11.6904 68.0436C11.7481 68.0336 11.8073 68.0352 11.8645 68.0483C11.9216 68.0614 11.9756 68.0858 12.0232 68.12C17.5256 72.0946 17.9911 76.1647 16.9646 77.7998C16.8163 78.0389 16.6217 78.2459 16.3923 78.4088C16.1629 78.5716 15.9032 78.687 15.6286 78.7482C15.354 78.8093 15.0699 78.815 14.7931 78.7649C14.5163 78.7148 14.2522 78.6099 14.0165 78.4563C13.1433 77.965 12.3021 77.4188 11.498 76.8211C12.5605 78.1209 13.0858 79.7777 12.9661 81.4522C12.88 81.9378 12.6634 82.391 12.3397 82.7631C12.0159 83.1352 11.5971 83.4123 11.128 83.5648C9.69574 84.1258 7.78602 83.0635 6.11502 81.7267C6.68794 82.4906 7.1415 83.1232 7.3086 83.3261C8.37088 85.0806 8.57378 86.2742 7.94119 86.9904C7.69928 87.2167 7.40953 87.3858 7.0934 87.485C6.77728 87.5841 6.4429 87.6109 6.11502 87.5633Z" fill="#1E1916"/>
<path d="M25.9508 65.8516L35.0697 0.957031C35.0697 0.957031 25.3063 6.9249 22.394 18.228C19.4817 29.5312 22.394 65.5293 22.394 65.5293L25.9508 65.8516Z" fill="url(#paint13_linear_858209_7544)"/>
<path d="M29.5326 70.8518C29.4235 72.073 28.9543 73.2343 28.1847 74.1887C27.4151 75.1431 26.3795 75.8476 25.2092 76.2131C24.0389 76.5786 22.7864 76.5886 21.6104 76.2418C20.4344 75.895 19.3878 75.207 18.6031 74.265C17.8183 73.323 17.3308 72.1693 17.2022 70.95C17.0735 69.7307 17.3096 68.5006 17.8805 67.4156C18.4514 66.3306 19.3315 65.4394 20.4092 64.8548C21.487 64.2703 22.714 64.0187 23.9348 64.132C25.5671 64.2834 27.0729 65.0757 28.1222 66.3352C29.1714 67.5948 29.6786 69.2189 29.5326 70.8518ZM19.244 69.9208C19.1695 70.7295 19.3365 71.5421 19.7239 72.2559C20.1113 72.9697 20.7016 73.5526 21.4203 73.9308C22.1389 74.3091 22.9536 74.4657 23.7613 74.3809C24.569 74.2961 25.3334 73.9737 25.9578 73.4545C26.5823 72.9352 27.0387 72.2424 27.2694 71.4638C27.5001 70.6851 27.4947 69.8555 27.2538 69.0799C27.013 68.3043 26.5476 67.6176 25.9164 67.1065C25.2853 66.5954 24.5167 66.283 23.708 66.2088C22.6245 66.1125 21.5469 66.4488 20.7106 67.1442C19.8742 67.8397 19.347 68.8379 19.244 69.9208Z" fill="url(#paint14_linear_858209_7544)"/>
<path d="M9.30078 57.5203L53.463 9.24023C53.463 9.24023 54.9549 20.615 48.068 29.9845C41.1811 39.3541 11.7834 60.1103 11.7834 60.1103L9.30078 57.5203Z" fill="url(#paint15_linear_858209_7544)"/>
<path d="M11.9154 57.9974C12.7697 58.8718 13.3457 59.9798 13.5705 61.1815C13.7953 62.3831 13.6589 63.6244 13.1784 64.7485C12.6979 65.8726 11.8949 66.829 10.871 67.4969C9.84711 68.1647 8.64819 68.5141 7.42578 68.5007C6.20338 68.4874 5.01236 68.112 4.00327 67.4219C2.99417 66.7318 2.2123 65.7581 1.75646 64.6238C1.30061 63.4895 1.19127 62.2455 1.44225 61.0491C1.69322 59.8526 2.29325 58.7575 3.16649 57.902C4.34033 56.7564 5.92058 56.1231 7.56068 56.141C9.20077 56.1589 10.7668 56.8265 11.9154 57.9974ZM10.4234 59.4536C9.84952 58.8786 9.11794 58.4867 8.32125 58.3276C7.52456 58.1685 6.69858 58.2493 5.94784 58.5598C5.19711 58.8704 4.55537 59.3966 4.10384 60.072C3.65232 60.7474 3.4113 61.5416 3.4113 62.354C3.4113 63.1664 3.65232 63.9606 4.10384 64.6359C4.55537 65.3113 5.19711 65.8376 5.94784 66.1481C6.69858 66.4586 7.52456 66.5395 8.32125 66.3804C9.11794 66.2213 9.84952 65.8294 10.4234 65.2544C11.1916 64.4846 11.6231 63.4415 11.6231 62.354C11.6231 61.2665 11.1916 60.2234 10.4234 59.4536Z" fill="url(#paint16_linear_858209_7544)"/>
<path d="M26.8685 45.5125C26.6931 45.9102 26.3676 46.2225 25.9629 46.3813C25.5582 46.54 25.1072 46.5323 24.7081 46.3599C24.3914 46.1422 24.1608 45.8205 24.0563 45.4507C23.9517 45.0809 23.9798 44.6861 24.1356 44.3348C24.2914 43.9834 24.5652 43.6977 24.9096 43.5269C25.2539 43.3562 25.6471 43.3112 26.0211 43.3999C26.4071 43.5752 26.7106 43.8927 26.8684 44.2862C27.0263 44.6797 27.0263 45.119 26.8685 45.5125Z" fill="#1E1916"/>
<path d="M11.4858 60.6716C11.3426 61.7101 12.6197 64.9804 8.52575 66.2934C5.45634 63.8189 2.86369 60.8056 0.874953 57.4013C-1.07057 54.298 1.9253 53.8205 3.41726 54.9067C5.70892 56.6016 7.89316 58.0697 11.4858 60.6716Z" fill="#FAAF9A"/>
<path d="M39.103 140.964L43.1134 135.963C43.1134 135.963 49.8213 149.343 48.2935 171.937L29.5306 174.026L25.0547 147.624L39.103 140.964Z" fill="#FAAF9A"/>
<path d="M67.248 262.016C67.248 262.016 74.5288 276.231 98.1974 271.994C135.067 265.382 146.024 279.155 176.162 266.456C179.287 246.031 180.736 225.385 180.494 204.724C179.933 167.473 176.329 125.363 163.701 114.681C159.869 111.493 155.675 108.768 151.204 106.565C149.063 105.49 146.847 104.512 144.556 103.629C133.097 99.2004 119.956 97.2907 107.985 99.5226C105.328 100.006 102.717 100.713 100.179 101.635C88.3982 105.98 78.5512 115.218 73.8246 131.212C71.1988 140.128 69.9694 158.294 69.2413 178.358C67.9164 213.485 70.1962 254.663 67.248 262.016Z" fill="url(#paint17_linear_858209_7544)"/>
<path d="M156.506 259.999C156.506 259.999 156.506 256.919 156.697 254.89C156.888 252.861 157.497 251.62 160.397 249.817C163.298 248.015 167.403 242.489 170.769 242.656C174.135 242.823 185.271 243.766 185.773 253.064C186.274 262.362 176.916 274.274 174.828 268.664C174.828 268.664 171.593 273.629 168.43 268.771C168.43 268.771 162.868 272.269 161.937 266.718C161.889 266.754 154.035 270.705 156.506 259.999Z" fill="#FAAF9A"/>
<path d="M161.889 266.754C161.888 265.491 162.04 264.233 162.342 263.006C162.615 261.767 163.036 260.565 163.595 259.426C163.599 260.692 163.451 261.954 163.154 263.186C162.886 264.424 162.461 265.623 161.889 266.754Z" fill="#1E1916"/>
<path d="M168.441 268.807C168.624 267.132 168.932 265.472 169.36 263.842C169.766 262.219 170.208 260.619 170.757 258.996C170.801 259.849 170.761 260.705 170.638 261.55C170.53 262.386 170.351 263.209 170.16 264.033C169.77 265.684 169.193 267.286 168.441 268.807Z" fill="#1E1916"/>
<path d="M174.814 268.759C175.22 267.625 175.674 266.599 176.08 265.549C176.294 265.023 176.497 264.498 176.712 263.961C176.927 263.424 177.106 262.899 177.369 262.338C177.497 263.536 177.32 264.747 176.855 265.859C176.627 266.409 176.347 266.937 176.02 267.434C175.689 267.936 175.283 268.383 174.814 268.759Z" fill="#1E1916"/>
<path d="M150.142 248.945C150.142 248.945 166.398 264.39 183.287 263.101C183.287 263.101 182.094 284.908 176.126 298.264C170.158 311.62 142.109 308.97 150.142 248.945Z" fill="url(#paint18_linear_858209_7544)"/>
<path d="M160.575 303.682C145.058 296.521 148.484 260.916 148.639 259.4L149.462 259.484C149.462 259.842 146.001 296.055 160.921 302.918L160.575 303.682Z" fill="#1E1916"/>
<path d="M179.089 291.269L178.301 291.006C181.881 280.324 182.717 266.263 182.848 263.554C177.554 263.767 172.283 262.746 167.451 260.57L167.833 259.83C172.673 262.009 177.966 262.992 183.266 262.695H183.732V263.16C183.708 263.279 183.027 279.345 179.089 291.269Z" fill="#1E1916"/>
<path d="M155.168 206.549C155.168 206.549 154.846 291.782 155.992 324.82C137.945 327.864 124.887 307.86 96.8144 312.885C73.1458 317.122 64.1582 307.311 64.1582 307.311C64.7789 286.077 67.918 213.484 69.1951 178.405C71.4987 146.178 84.437 119.013 100.132 101.682C102.715 100.504 105.427 99.635 108.213 99.0918L107.95 99.5573C106.208 102.565 96.7905 119.275 95.4059 130.889C93.8901 143.684 111.567 147.372 123.133 128.716C132.395 113.749 141.335 106.122 144.521 103.651C145.309 103.054 145.715 102.768 145.715 102.768L151.898 106.122L151.122 106.587L150.453 106.981C150.453 106.981 130.736 120.457 136.811 157.231C142.707 192.919 178.323 204.114 180.424 204.735C180.424 205.797 180.424 206.859 180.424 207.922C177.691 208.113 169.73 208.328 155.168 206.549Z" fill="url(#paint19_linear_858209_7544)"/>
<path d="M77.0115 136.5C76.9041 136.894 67.6777 176.7 67.8926 189.65C68.1074 202.6 67.26 217.711 67.248 217.866L68.4416 217.997C68.4416 217.842 69.3129 202.6 69.0861 189.638C68.8594 176.676 78.0618 137.228 78.1692 136.834L77.0115 136.5Z" fill="black"/>
<path d="M112.855 81.2239L113.834 102.326C114.717 104.367 119.492 114.942 140.224 102.66L137.574 71.9141C129.527 75.5055 121.273 78.6144 112.855 81.2239Z" fill="#FAAF9A"/>
<path d="M105.371 114.299L104.416 115.11C104.655 115.385 110.217 121.842 118.261 120.147L117.999 118.954C110.694 120.458 105.419 114.359 105.371 114.299Z" fill="#1E1916"/>
<path d="M147.337 112.902C140.629 116.483 134.84 136.607 140.939 151.681C147.038 166.756 154.212 180.936 173.261 200.618C184.303 187.18 196.353 174.603 209.307 162.997C209.307 162.997 182.105 126.39 170.826 115.994C159.547 105.598 154.737 108.928 147.337 112.902Z" fill="url(#paint20_linear_858209_7544)"/>
<path d="M174.409 179.169C169.951 178.755 165.679 177.18 162.019 174.602C158.359 172.025 155.437 168.533 153.545 164.476L154.536 163.975C156.732 168.637 160.326 172.5 164.817 175.028C169.308 177.556 174.475 178.624 179.601 178.083L179.768 179.169C177.988 179.384 176.188 179.384 174.409 179.169Z" fill="black"/>
<path d="M209.021 161.493C211.026 162.686 206.323 174.3 198.517 187.441C190.711 200.582 175.601 202.146 173.56 200.952C171.519 199.759 179.205 193.433 187.011 180.292C194.817 167.15 206.98 160.299 209.021 161.493Z" fill="black"/>
<path d="M173.215 201.369C172.797 200.999 138.399 171.78 139.509 141.01H140.619C139.533 171.267 173.537 200.127 173.955 200.497L173.215 201.369Z" fill="black"/>
<path d="M178.956 252.001C174.898 252.132 167.641 250.258 167.641 250.258C167.641 250.258 187.931 200.689 192.503 186.176C193.971 181.544 217.806 175.994 215.813 196.488C214.238 212.661 186.857 236.162 183.993 249.256C183.444 251.75 179.732 251.977 178.956 252.001Z" fill="#FAAF9A"/>
<path d="M213.94 186.63L200.583 165.205C200.583 165.205 186.153 172.916 178.693 192.419C178.693 192.419 194.043 206.992 202.636 208.95C211.23 210.907 213.94 186.63 213.94 186.63Z" fill="#FAAF9A"/>
<path d="M111.148 102.243C109.501 100.548 107.973 94.0193 106.135 93.3628L106.373 87.8485C115.663 85.2623 124.79 82.1256 133.706 78.4551L133.181 97.2419C131.868 98.2087 129.6 103.783 126.867 105.597C122.26 108.772 116.423 107.662 111.148 102.243Z" fill="#ED7662"/>
<path d="M134.293 73.0612C133.916 74.4483 133.96 75.9159 134.417 77.2784C134.874 78.641 135.725 79.8373 136.862 80.7163C138 81.5954 139.372 82.1175 140.806 82.2169C142.239 82.3162 143.67 81.9882 144.918 81.2744C146.165 80.5606 147.173 79.493 147.814 78.2066C148.455 76.9201 148.7 75.4725 148.519 74.0468C148.337 72.6211 147.737 71.2812 146.794 70.1965C145.851 69.1118 144.607 68.331 143.221 67.9527C141.36 67.4483 139.374 67.7029 137.7 68.6606C136.027 69.6183 134.801 71.201 134.293 73.0612Z" fill="#FAAF9A"/>
<path d="M141.382 80.4847C142.232 80.4579 143.058 80.1977 143.769 79.7327L143.005 78.5392C142.498 78.8888 141.891 79.0647 141.275 79.0405C141.2 79.0242 141.13 78.991 141.07 78.9434C141.01 78.8958 140.961 78.8351 140.929 78.7659C140.785 78.5153 140.773 78.5033 141.167 78.0498C141.553 77.687 141.837 77.2292 141.989 76.7222C142.142 76.2152 142.159 75.6769 142.039 75.1613C141.883 74.4331 141.617 73.7328 141.251 73.0845C140.749 72.1177 140.678 71.9745 141.537 71.318C142.958 70.2558 145.249 73.0965 145.273 73.1203L146.383 72.249C145.19 70.769 142.707 68.6683 140.69 70.1961C138.876 71.5687 139.496 72.7145 139.998 73.7768C140.298 74.3119 140.523 74.8864 140.666 75.4836C140.741 75.7892 140.729 76.1097 140.632 76.409C140.535 76.7083 140.357 76.9748 140.117 77.1785C139.763 77.4533 139.524 77.85 139.447 78.2914C139.37 78.7327 139.46 79.187 139.699 79.5656C139.826 79.7941 139.996 79.9951 140.201 80.157C140.406 80.3188 140.641 80.4384 140.893 80.5085C141.056 80.5198 141.22 80.5118 141.382 80.4847Z" fill="#1E1916"/>
<path d="M106.137 72.2738C106.436 73.6797 106.311 75.1426 105.778 76.4775C105.246 77.8125 104.329 78.9596 103.145 79.7739C101.961 80.5882 100.562 81.0331 99.1244 81.0524C97.6872 81.0718 96.2766 80.6646 95.0709 79.8824C93.8651 79.1003 92.9182 77.9782 92.35 76.658C91.7818 75.3378 91.6177 73.8789 91.8785 72.4655C92.1392 71.0521 92.8131 69.7477 93.815 68.7172C94.8169 67.6867 96.1018 66.9764 97.5073 66.6759C99.3938 66.276 101.362 66.6407 102.98 67.6902C104.598 68.7397 105.733 70.3881 106.137 72.2738Z" fill="#FAAF9A"/>
<path d="M98.6521 79.2788C98.8068 79.2966 98.963 79.2966 99.1176 79.2788C99.3836 79.2252 99.6356 79.1169 99.8575 78.9607C100.079 78.8045 100.266 78.604 100.407 78.3717C100.661 78.0083 100.772 77.5638 100.72 77.1234C100.667 76.6829 100.453 76.2774 100.12 75.9845C99.8951 75.7666 99.7339 75.4913 99.654 75.1883C99.574 74.8854 99.5784 74.5664 99.6666 74.2658C99.8329 73.6915 100.082 73.1447 100.407 72.6425C100.992 71.6519 101.6 70.5299 99.9173 69.0618C98.0195 67.4147 95.3937 69.3841 94.1523 70.8522L95.2146 71.7712C95.2146 71.7712 97.6734 69.0379 99.046 70.1838C99.8696 70.888 99.7741 71.0312 99.225 71.9622C98.829 72.5926 98.5236 73.2757 98.3179 73.9913C98.1685 74.4995 98.1549 75.0381 98.2785 75.5533C98.402 76.0684 98.6584 76.5422 99.0221 76.9274C99.3921 77.4049 99.3921 77.4168 99.237 77.6555C99.1976 77.7231 99.1442 77.7815 99.0803 77.8268C99.0165 77.8721 98.9438 77.9032 98.867 77.9181C98.2519 77.8994 97.6585 77.6863 97.1721 77.3094L96.3366 78.503C97.0261 78.962 97.8252 79.2297 98.6521 79.2788Z" fill="#1E1916"/>
<path d="M101.17 68.4662C99.9052 57.3779 102.877 51.7562 113.834 48.4022C125.543 44.8215 135.653 50.109 139.257 61.818C140.367 66.117 140.429 70.6197 139.436 74.9473C139.436 74.9473 138.601 84.7704 137.932 87.9811C137.36 90.1853 135.991 92.0991 134.089 93.3522L125.316 99.6662C124.007 100.604 122.427 101.09 120.817 101.051L117.773 100.967C116.147 100.946 114.573 100.388 113.297 99.3797L105.181 92.636C103.394 91.3024 102.172 89.3478 101.755 87.1576C101.194 82.5265 101.6 71.7843 101.17 68.4662Z" fill="#FAAF9A"/>
<path d="M132.955 54.3087C117.641 56.9704 106.851 53.4852 105.646 53.5449C104.44 53.6045 103.605 60.8137 103.259 64.0722C103.046 66.077 102.336 67.9969 101.194 69.6581C101.194 69.6581 101.898 76.5211 100.49 75.7931C99.509 75.1175 98.6726 74.2535 98.0292 73.2514C97.3857 72.2494 96.9481 71.1293 96.7418 69.9565C96.0257 66.9606 96.0973 53.7597 98.1025 49.6657C100.108 45.5718 111.685 38.84 113.75 35.4861C115.815 32.1322 119.253 29.6853 119.623 31.5831C119.849 32.812 119.877 34.0692 119.706 35.3071C119.706 35.3071 122.511 32.6215 124.612 35.3071C126.712 37.9926 137.944 42.1224 140.558 45.8821C143.172 49.6419 143.494 59.2143 143.375 62.4131C143.255 65.6119 142.181 68.6555 141.381 73.3582C140.582 78.0608 138.744 75.5305 138.338 73.8356C138.384 72.0449 138.543 70.2589 138.815 68.4884C138.815 68.4884 135.76 59.4053 135.509 57.7462C135.02 54.9891 135.581 53.8552 132.955 54.3087Z" fill="#1E1916"/>
<path d="M100.683 82.8481C100.683 82.8481 90.6329 97.6603 90.1794 120.016C89.7258 142.372 117.285 140.617 134.712 125.841C152.138 111.064 137.803 82.8719 137.803 82.8719L115.996 80.0312L100.683 82.8481Z" fill="#1E1916"/>
<path d="M120.925 76.5217L121.283 75.0178C119.48 74.5881 117.404 73.6929 117.165 73.0484C117.165 73.0484 117.165 72.9529 117.237 72.8096C120.59 68.286 119.254 62.4614 119.194 62.2227L117.69 62.5807C117.69 62.5807 118.884 67.9518 116.007 71.8787C115.819 72.1134 115.694 72.3923 115.644 72.6889C115.594 72.9855 115.62 73.29 115.721 73.5735C116.365 75.352 120.173 76.3426 120.925 76.5217Z" fill="#1E1916"/>
<path d="M131.534 63.4049L132.346 62.092C126.545 58.4397 122.403 62.092 122.355 62.092L123.394 63.2856C123.525 63.1662 126.736 60.3971 131.534 63.4049Z" fill="#1E1916"/>
<path d="M111.15 81.3795C111.15 81.3795 118.503 76.9871 129.269 80.6991C129.257 80.6991 122.334 95.5114 111.15 81.3795Z" fill="#1E1916"/>
<path d="M126.858 84.232C124.28 87.1085 119.696 89.8298 113.729 84.232C122.752 82.7042 126.225 84.1962 126.858 84.232Z" fill="url(#paint21_linear_858209_7544)"/>
<path d="M112.344 82.8476C111.938 82.394 111.52 81.9166 111.15 81.3795C111.15 81.3795 118.503 76.9871 129.269 80.6991C129.269 80.6991 129.042 81.1766 128.624 81.8927C127.371 81.5943 117.834 80.6633 112.344 82.8476Z" fill="white"/>
<path d="M125.615 66.3176C125.561 66.2423 125.513 66.1624 125.472 66.0789C125.403 65.5938 125.522 65.1007 125.805 64.7004C126.087 64.3 126.512 64.0228 126.992 63.9252C127.472 63.8276 127.972 63.9172 128.388 64.1755C128.804 64.4338 129.106 64.8415 129.232 65.315C129.308 65.7217 129.245 66.1422 129.053 66.5086C127.921 66.2943 126.765 66.2301 125.615 66.3176Z" fill="#1E1916"/>
<path d="M107.222 64.4079C107.33 64.2766 110.099 61.054 115.279 63.3098L115.924 61.9014C109.633 59.1562 106.089 63.3934 106.053 63.4292L107.246 64.4079L106.65 63.9186L107.222 64.4079Z" fill="#1E1916"/>
<path d="M109.862 67.0814C109.811 66.9976 109.767 66.9098 109.731 66.8189C109.619 66.3608 109.679 65.8776 109.901 65.4613C110.122 65.0449 110.488 64.7244 110.931 64.5608C111.373 64.3972 111.86 64.4019 112.299 64.5739C112.738 64.746 113.098 65.0735 113.311 65.494C113.441 65.8814 113.441 66.3002 113.311 66.6876C112.149 66.6663 110.989 66.7987 109.862 67.0814Z" fill="#1E1916"/>
<path d="M116.544 74.6367C111.292 75.3171 109.824 79.411 102.221 78.1458C94.6178 76.8806 93.0781 74.6367 93.0781 74.6367C93.0781 74.6367 99.046 84.4718 104.56 85.2357C110.075 85.9995 114.837 83.5169 119.528 81.5594C124.218 79.602 116.544 74.6367 116.544 74.6367Z" fill="#1E1916"/>
<path d="M122.035 74.6367C127.298 75.3171 128.766 79.411 136.357 78.1458C143.949 76.8806 145.512 74.6367 145.512 74.6367C145.512 74.6367 139.544 84.4718 134.018 85.2357C128.492 85.9995 123.753 83.5169 119.051 81.5594C114.348 79.602 122.035 74.6367 122.035 74.6367Z" fill="#1E1916"/>
<path d="M122.261 252.419L129.422 250.891C129.67 250.839 129.906 250.738 130.115 250.594C130.324 250.45 130.502 250.266 130.639 250.053C130.777 249.84 130.871 249.602 130.916 249.353C130.961 249.103 130.957 248.847 130.902 248.599L124.934 220.825C124.823 220.327 124.52 219.893 124.091 219.616C123.663 219.339 123.143 219.242 122.643 219.345L115.481 220.873C114.982 220.981 114.546 221.283 114.268 221.713C113.991 222.142 113.895 222.664 114.001 223.164L119.969 250.939C120.02 251.188 120.12 251.424 120.264 251.634C120.407 251.843 120.591 252.022 120.804 252.16C121.017 252.298 121.256 252.392 121.506 252.436C121.757 252.481 122.013 252.475 122.261 252.419Z" fill="url(#paint22_linear_858209_7544)"/>
<path d="M114.171 223.815L122.236 222.092L122.099 221.45L114.034 223.173L114.171 223.815Z" fill="url(#paint23_linear_858209_7544)"/>
<path d="M114.466 225.138L123.303 223.252L123.131 222.447L114.295 224.333L114.466 225.138Z" fill="url(#paint24_linear_858209_7544)"/>
<path d="M114.731 226.378L122.797 224.656L122.66 224.014L114.594 225.736L114.731 226.378Z" fill="url(#paint25_linear_858209_7544)"/>
<path d="M115.027 227.72L123.863 225.834L123.691 225.029L114.855 226.915L115.027 227.72Z" fill="url(#paint26_linear_858209_7544)"/>
<path d="M115.266 228.96L123.332 227.238L123.195 226.596L115.129 228.318L115.266 228.96Z" fill="url(#paint27_linear_858209_7544)"/>
<path d="M115.576 230.291L124.412 228.404L124.24 227.599L115.404 229.485L115.576 230.291Z" fill="url(#paint28_linear_858209_7544)"/>
<path d="M115.817 231.549L123.883 229.826L123.743 229.173L115.678 230.896L115.817 231.549Z" fill="url(#paint29_linear_858209_7544)"/>
<path d="M116.111 232.868L124.947 230.98L124.775 230.175L115.939 232.063L116.111 232.868Z" fill="url(#paint30_linear_858209_7544)"/>
<path d="M116.362 234.122L124.428 232.398L124.291 231.756L116.225 233.48L116.362 234.122Z" fill="url(#paint31_linear_858209_7544)"/>
<path d="M116.674 235.431L125.51 233.545L125.338 232.74L116.502 234.626L116.674 235.431Z" fill="url(#paint32_linear_858209_7544)"/>
<path d="M116.926 236.685L124.992 234.963L124.855 234.321L116.789 236.043L116.926 236.685Z" fill="url(#paint33_linear_858209_7544)"/>
<path d="M117.222 238.013L126.059 236.127L125.887 235.322L117.05 237.208L117.222 238.013Z" fill="url(#paint34_linear_858209_7544)"/>
<path d="M117.47 239.262L125.535 237.539L125.398 236.897L117.332 238.62L117.47 239.262Z" fill="url(#paint35_linear_858209_7544)"/>
<path d="M117.77 240.603L126.605 238.715L126.433 237.909L117.597 239.797L117.77 240.603Z" fill="url(#paint36_linear_858209_7544)"/>
<path d="M105.571 226.116L104.721 255.608C104.699 256.366 105.296 256.998 106.054 257.02L108.965 257.104C109.723 257.126 110.355 256.529 110.376 255.771L111.226 226.278C111.248 225.521 110.651 224.889 109.893 224.867L106.982 224.783C106.225 224.761 105.593 225.358 105.571 226.116Z" fill="url(#paint37_linear_858209_7544)"/>
<path d="M105.543 227.335L109.719 227.455L109.738 226.799L105.562 226.679L105.543 227.335Z" fill="url(#paint38_linear_858209_7544)"/>
<path d="M105.507 228.698L110.076 228.83L110.1 228.007L105.53 227.875L105.507 228.698Z" fill="url(#paint39_linear_858209_7544)"/>
<path d="M105.475 229.952L109.65 230.072L109.669 229.416L105.494 229.296L105.475 229.952Z" fill="url(#paint40_linear_858209_7544)"/>
<path d="M105.425 231.339L109.994 231.471L110.018 230.647L105.448 230.516L105.425 231.339Z" fill="url(#paint41_linear_858209_7544)"/>
<path d="M105.395 232.593L109.57 232.713L109.589 232.057L105.413 231.936L105.395 232.593Z" fill="url(#paint42_linear_858209_7544)"/>
<path d="M105.348 233.956L109.918 234.088L109.942 233.265L105.372 233.133L105.348 233.956Z" fill="url(#paint43_linear_858209_7544)"/>
<path d="M105.316 235.222L109.492 235.342L109.511 234.686L105.335 234.565L105.316 235.222Z" fill="url(#paint44_linear_858209_7544)"/>
<path d="M105.266 236.597L109.836 236.729L109.86 235.905L105.29 235.774L105.266 236.597Z" fill="url(#paint45_linear_858209_7544)"/>
<path d="M105.236 237.864L109.412 237.984L109.431 237.328L105.255 237.208L105.236 237.864Z" fill="url(#paint46_linear_858209_7544)"/>
<path d="M105.2 239.226L109.77 239.357L109.793 238.534L105.224 238.403L105.2 239.226Z" fill="url(#paint47_linear_858209_7544)"/>
<path d="M105.158 240.493L109.334 240.613L109.353 239.957L105.177 239.837L105.158 240.493Z" fill="url(#paint48_linear_858209_7544)"/>
<path d="M105.122 241.866L109.691 241.998L109.715 241.175L105.146 241.043L105.122 241.866Z" fill="url(#paint49_linear_858209_7544)"/>
<path d="M105.078 243.122L109.254 243.242L109.273 242.586L105.097 242.466L105.078 243.122Z" fill="url(#paint50_linear_858209_7544)"/>
<path d="M105.042 244.497L109.611 244.629L109.635 243.806L105.066 243.674L105.042 244.497Z" fill="url(#paint51_linear_858209_7544)"/>
<path d="M79.6622 224.68C79.4748 223.798 79.5528 222.881 79.8864 222.043C80.2201 221.206 80.7944 220.487 81.5369 219.976C82.2793 219.465 83.1566 219.185 84.0578 219.172C84.959 219.16 85.8437 219.414 86.6003 219.904C87.3568 220.394 87.9512 221.097 88.3083 221.925C88.6654 222.752 88.7692 223.667 88.6066 224.554C88.444 225.44 88.0224 226.259 87.3949 226.906C86.7674 227.553 85.9622 227.999 85.081 228.189C84.4948 228.315 83.8894 228.324 83.2995 228.216C82.7097 228.108 82.147 227.884 81.6436 227.558C81.1403 227.232 80.7062 226.81 80.3662 226.316C80.0262 225.822 79.7869 225.266 79.6622 224.68ZM81.2139 224.345C81.3352 224.921 81.6245 225.447 82.0451 225.858C82.4657 226.269 82.9986 226.545 83.5766 226.653C84.1545 226.761 84.7515 226.695 85.2919 226.464C85.8323 226.232 86.292 225.846 86.6127 225.353C86.9334 224.86 87.1008 224.283 87.0936 223.696C87.0864 223.108 86.9051 222.535 86.5724 222.05C86.2398 221.566 85.7709 221.19 85.225 220.972C84.679 220.754 84.0807 220.702 83.5055 220.824C82.7381 220.993 82.0678 221.457 81.6391 222.116C81.2104 222.775 81.0577 223.575 81.2139 224.345Z" fill="url(#paint52_linear_858209_7544)"/>
<path d="M91.611 224.657C91.3971 223.662 91.4832 222.626 91.8585 221.679C92.2338 220.733 92.8814 219.919 93.7193 219.341C94.5572 218.763 95.5478 218.447 96.5656 218.432C97.5834 218.417 98.5828 218.705 99.4371 219.258C100.292 219.812 100.962 220.606 101.365 221.541C101.768 222.476 101.884 223.509 101.699 224.51C101.514 225.511 101.036 226.435 100.326 227.164C99.6163 227.894 98.7058 228.396 97.7101 228.608C96.3779 228.888 94.9889 228.63 93.8463 227.889C92.7037 227.149 91.9002 225.987 91.611 224.657ZM93.1746 224.323C93.3175 225.019 93.6647 225.658 94.1717 226.156C94.6788 226.655 95.3228 226.991 96.0217 227.122C96.7206 227.253 97.4427 227.173 98.096 226.893C98.7493 226.612 99.3042 226.143 99.69 225.546C100.076 224.948 100.275 224.25 100.262 223.539C100.25 222.828 100.025 222.137 99.6184 221.554C99.2114 220.97 98.6401 220.522 97.9771 220.265C97.3142 220.007 96.5896 219.953 95.8959 220.11C94.9809 220.316 94.1832 220.872 93.6743 221.66C93.1654 222.448 92.986 223.404 93.1746 224.323Z" fill="url(#paint53_linear_858209_7544)"/>
<path d="M99.0834 220.574C99.2231 220.541 99.3493 220.466 99.4453 220.36C99.5413 220.253 99.6024 220.119 99.6205 219.977C99.6205 219.846 100.086 216.731 102.951 216.11C103.131 216.072 103.289 215.964 103.39 215.809C103.49 215.655 103.526 215.467 103.488 215.286C103.45 215.106 103.342 214.948 103.187 214.847C103.033 214.747 102.845 214.711 102.664 214.749C98.8208 215.585 98.2718 219.631 98.2479 219.81C98.2362 219.899 98.2425 219.99 98.2662 220.077C98.29 220.164 98.3309 220.246 98.3864 220.317C98.4419 220.388 98.511 220.447 98.5897 220.491C98.6684 220.536 98.7551 220.564 98.8447 220.574H99.0834Z" fill="url(#paint54_linear_858209_7544)"/>
<path d="M92.6133 226.639L93.2459 249.77C93.2459 249.77 98.605 246.368 96.3969 227.2L92.6133 226.639Z" fill="url(#paint55_linear_858209_7544)"/>
<path d="M88.1827 224.621L102.577 242.728C102.577 242.728 96.2871 243.563 85.6523 227.486L88.1827 224.621Z" fill="url(#paint56_linear_858209_7544)"/>
<path d="M83.448 230.936C91.387 233.159 99.5678 234.406 107.809 234.648C116.047 234.761 124.268 233.867 132.289 231.986C132.289 231.986 146.111 284.002 106.723 284.73C67.4064 282.319 83.448 230.936 83.448 230.936Z" fill="url(#paint57_linear_858209_7544)"/>
<defs>
<linearGradient id="paint0_linear_858209_7544" x1="295.168" y1="85.0497" x2="330.086" y2="80.1119" gradientUnits="userSpaceOnUse">
<stop stop-color="#0E218A"/>
<stop offset="1" stop-color="#1F72D2"/>
</linearGradient>
<linearGradient id="paint1_linear_858209_7544" x1="324.049" y1="66.7666" x2="349.253" y2="63.2023" gradientUnits="userSpaceOnUse">
<stop stop-color="#EBEAE5"/>
<stop offset="1" stop-color="#ABAFB8"/>
</linearGradient>
<linearGradient id="paint2_linear_858209_7544" x1="320.665" y1="64.8957" x2="346.188" y2="61.2863" gradientUnits="userSpaceOnUse">
<stop stop-color="#0E218A"/>
<stop offset="1" stop-color="#1F72D2"/>
</linearGradient>
<linearGradient id="paint3_linear_858209_7544" x1="315.955" y1="102.467" x2="328.384" y2="99.0034" gradientUnits="userSpaceOnUse">
<stop stop-color="#237C8F"/>
<stop offset="1" stop-color="#2ABDD1"/>
</linearGradient>
<linearGradient id="paint4_linear_858209_7544" x1="313.52" y1="81.2843" x2="316.205" y2="81.2843" gradientUnits="userSpaceOnUse">
<stop stop-color="#0E218A"/>
<stop offset="1" stop-color="#1F72D2"/>
</linearGradient>
<linearGradient id="paint5_linear_858209_7544" x1="140.594" y1="153.483" x2="198.65" y2="153.483" gradientUnits="userSpaceOnUse">
<stop stop-color="#FEA235"/>
<stop offset="1" stop-color="#FFB44F"/>
</linearGradient>
<linearGradient id="paint6_linear_858209_7544" x1="143.627" y1="291.998" x2="278.357" y2="291.998" gradientUnits="userSpaceOnUse">
<stop stop-color="#0E218A"/>
<stop offset="1" stop-color="#1F72D2"/>
</linearGradient>
<linearGradient id="paint7_linear_858209_7544" x1="263.616" y1="198.529" x2="173.608" y2="124.742" gradientUnits="userSpaceOnUse">
<stop stop-color="#FEA235"/>
<stop offset="1" stop-color="#FFB44F"/>
</linearGradient>
<linearGradient id="paint8_linear_858209_7544" x1="265.685" y1="188.027" x2="213.767" y2="83.8536" gradientUnits="userSpaceOnUse">
<stop stop-color="#FEA235"/>
<stop offset="1" stop-color="#FFB44F"/>
</linearGradient>
<linearGradient id="paint9_linear_858209_7544" x1="193.088" y1="53.3308" x2="210.347" y2="53.3308" gradientUnits="userSpaceOnUse">
<stop stop-color="#237C8F"/>
<stop offset="1" stop-color="#2ABDD1"/>
</linearGradient>
<linearGradient id="paint10_linear_858209_7544" x1="62.2246" y1="340.349" x2="127.967" y2="340.349" gradientUnits="userSpaceOnUse">
<stop stop-color="#237C8F"/>
<stop offset="1" stop-color="#2ABDD1"/>
</linearGradient>
<linearGradient id="paint11_linear_858209_7544" x1="111.913" y1="344.897" x2="177.547" y2="344.897" gradientUnits="userSpaceOnUse">
<stop stop-color="#237C8F"/>
<stop offset="1" stop-color="#2ABDD1"/>
</linearGradient>
<linearGradient id="paint12_linear_858209_7544" x1="79.3165" y1="279.464" x2="79.3165" y2="97.5637" gradientUnits="userSpaceOnUse">
<stop stop-color="#F6462E"/>
<stop offset="1" stop-color="#FB7D42"/>
</linearGradient>
<linearGradient id="paint13_linear_858209_7544" x1="21.1049" y1="33.3983" x2="35.0697" y2="33.3983" gradientUnits="userSpaceOnUse">
<stop stop-color="#EBEAE5"/>
<stop offset="1" stop-color="#ABAFB8"/>
</linearGradient>
<linearGradient id="paint14_linear_858209_7544" x1="17.1792" y1="70.2908" x2="29.5565" y2="70.2908" gradientUnits="userSpaceOnUse">
<stop stop-color="#D2D1CD"/>
<stop offset="1" stop-color="#ABAFB8"/>
</linearGradient>
<linearGradient id="paint15_linear_858209_7544" x1="9.30078" y1="34.6514" x2="53.5465" y2="34.6514" gradientUnits="userSpaceOnUse">
<stop stop-color="#EBEAE5"/>
<stop offset="1" stop-color="#ABAFB8"/>
</linearGradient>
<linearGradient id="paint16_linear_858209_7544" x1="1.30452" y1="62.3301" x2="13.6819" y2="62.3301" gradientUnits="userSpaceOnUse">
<stop stop-color="#D2D1CD"/>
<stop offset="1" stop-color="#ABAFB8"/>
</linearGradient>
<linearGradient id="paint17_linear_858209_7544" x1="123.895" y1="279.466" x2="123.895" y2="97.5652" gradientUnits="userSpaceOnUse">
<stop stop-color="#F6462E"/>
<stop offset="1" stop-color="#FB7D42"/>
</linearGradient>
<linearGradient id="paint18_linear_858209_7544" x1="148.709" y1="276.899" x2="183.287" y2="276.899" gradientUnits="userSpaceOnUse">
<stop stop-color="#237C8F"/>
<stop offset="1" stop-color="#2ABDD1"/>
</linearGradient>
<linearGradient id="paint19_linear_858209_7544" x1="119.719" y1="364.399" x2="126.284" y2="96.4421" gradientUnits="userSpaceOnUse">
<stop stop-color="#0E218A"/>
<stop offset="1" stop-color="#1F72D2"/>
</linearGradient>
<linearGradient id="paint20_linear_858209_7544" x1="173.834" y1="279.465" x2="173.834" y2="97.5649" gradientUnits="userSpaceOnUse">
<stop stop-color="#F6462E"/>
<stop offset="1" stop-color="#FB7D42"/>
</linearGradient>
<linearGradient id="paint21_linear_858209_7544" x1="113.693" y1="85.5091" x2="126.858" y2="85.5091" gradientUnits="userSpaceOnUse">
<stop stop-color="#F6462E"/>
<stop offset="1" stop-color="#FB7D42"/>
</linearGradient>
<linearGradient id="paint22_linear_858209_7544" x1="111.385" y1="232.873" x2="134.13" y2="239.507" gradientUnits="userSpaceOnUse">
<stop stop-color="#FEA235"/>
<stop offset="1" stop-color="#FFB44F"/>
</linearGradient>
<linearGradient id="paint23_linear_858209_7544" x1="114.503" y1="221.575" x2="121.785" y2="223.676" gradientUnits="userSpaceOnUse">
<stop stop-color="#0E218A"/>
<stop offset="1" stop-color="#1F72D2"/>
</linearGradient>
<linearGradient id="paint24_linear_858209_7544" x1="114.795" y1="222.641" x2="122.822" y2="224.958" gradientUnits="userSpaceOnUse">
<stop stop-color="#0E218A"/>
<stop offset="1" stop-color="#1F72D2"/>
</linearGradient>
<linearGradient id="paint25_linear_858209_7544" x1="114.754" y1="224.334" x2="122.02" y2="226.425" gradientUnits="userSpaceOnUse">
<stop stop-color="#0E218A"/>
<stop offset="1" stop-color="#1F72D2"/>
</linearGradient>
<linearGradient id="paint26_linear_858209_7544" x1="115.361" y1="225.215" x2="123.377" y2="227.529" gradientUnits="userSpaceOnUse">
<stop stop-color="#0E218A"/>
<stop offset="1" stop-color="#1F72D2"/>
</linearGradient>
<linearGradient id="paint27_linear_858209_7544" x1="115.596" y1="226.726" x2="122.878" y2="228.826" gradientUnits="userSpaceOnUse">
<stop stop-color="#0E218A"/>
<stop offset="1" stop-color="#1F72D2"/>
</linearGradient>
<linearGradient id="paint28_linear_858209_7544" x1="115.912" y1="227.787" x2="123.94" y2="230.103" gradientUnits="userSpaceOnUse">
<stop stop-color="#0E218A"/>
<stop offset="1" stop-color="#1F72D2"/>
</linearGradient>
<linearGradient id="paint29_linear_858209_7544" x1="116.148" y1="229.3" x2="123.43" y2="231.401" gradientUnits="userSpaceOnUse">
<stop stop-color="#0E218A"/>
<stop offset="1" stop-color="#1F72D2"/>
</linearGradient>
<linearGradient id="paint30_linear_858209_7544" x1="116.43" y1="230.356" x2="124.457" y2="232.671" gradientUnits="userSpaceOnUse">
<stop stop-color="#0E218A"/>
<stop offset="1" stop-color="#1F72D2"/>
</linearGradient>
<linearGradient id="paint31_linear_858209_7544" x1="116.68" y1="231.888" x2="123.963" y2="233.988" gradientUnits="userSpaceOnUse">
<stop stop-color="#0E218A"/>
<stop offset="1" stop-color="#1F72D2"/>
</linearGradient>
<linearGradient id="paint32_linear_858209_7544" x1="117.009" y1="232.929" x2="125.036" y2="235.246" gradientUnits="userSpaceOnUse">
<stop stop-color="#0E218A"/>
<stop offset="1" stop-color="#1F72D2"/>
</linearGradient>
<linearGradient id="paint33_linear_858209_7544" x1="117.244" y1="234.443" x2="124.526" y2="236.544" gradientUnits="userSpaceOnUse">
<stop stop-color="#0E218A"/>
<stop offset="1" stop-color="#1F72D2"/>
</linearGradient>
<linearGradient id="paint34_linear_858209_7544" x1="117.554" y1="235.512" x2="125.581" y2="237.829" gradientUnits="userSpaceOnUse">
<stop stop-color="#0E218A"/>
<stop offset="1" stop-color="#1F72D2"/>
</linearGradient>
<linearGradient id="paint35_linear_858209_7544" x1="117.787" y1="237.03" x2="125.069" y2="239.13" gradientUnits="userSpaceOnUse">
<stop stop-color="#0E218A"/>
<stop offset="1" stop-color="#1F72D2"/>
</linearGradient>
<linearGradient id="paint36_linear_858209_7544" x1="118.086" y1="238.081" x2="126.114" y2="240.397" gradientUnits="userSpaceOnUse">
<stop stop-color="#0E218A"/>
<stop offset="1" stop-color="#1F72D2"/>
</linearGradient>
<linearGradient id="paint37_linear_858209_7544" x1="101.763" y1="239.148" x2="114.183" y2="242.73" gradientUnits="userSpaceOnUse">
<stop stop-color="#CAF0DB"/>
<stop offset="1" stop-color="#F8F7DB"/>
</linearGradient>
<linearGradient id="paint38_linear_858209_7544" x1="105.788" y1="226.295" x2="109.843" y2="227.465" gradientUnits="userSpaceOnUse">
<stop stop-color="#0E218A"/>
<stop offset="1" stop-color="#1F72D2"/>
</linearGradient>
<linearGradient id="paint39_linear_858209_7544" x1="105.569" y1="227.714" x2="110.03" y2="229.001" gradientUnits="userSpaceOnUse">
<stop stop-color="#0E218A"/>
<stop offset="1" stop-color="#1F72D2"/>
</linearGradient>
<linearGradient id="paint40_linear_858209_7544" x1="105.551" y1="229.102" x2="109.599" y2="230.27" gradientUnits="userSpaceOnUse">
<stop stop-color="#0E218A"/>
<stop offset="1" stop-color="#1F72D2"/>
</linearGradient>
<linearGradient id="paint41_linear_858209_7544" x1="105.489" y1="230.334" x2="109.939" y2="231.617" gradientUnits="userSpaceOnUse">
<stop stop-color="#0E218A"/>
<stop offset="1" stop-color="#1F72D2"/>
</linearGradient>
<linearGradient id="paint42_linear_858209_7544" x1="105.636" y1="231.572" x2="109.691" y2="232.743" gradientUnits="userSpaceOnUse">
<stop stop-color="#0E218A"/>
<stop offset="1" stop-color="#1F72D2"/>
</linearGradient>
<linearGradient id="paint43_linear_858209_7544" x1="105.424" y1="232.963" x2="109.873" y2="234.246" gradientUnits="userSpaceOnUse">
<stop stop-color="#0E218A"/>
<stop offset="1" stop-color="#1F72D2"/>
</linearGradient>
<linearGradient id="paint44_linear_858209_7544" x1="105.559" y1="234.206" x2="109.613" y2="235.376" gradientUnits="userSpaceOnUse">
<stop stop-color="#0E218A"/>
<stop offset="1" stop-color="#1F72D2"/>
</linearGradient>
<linearGradient id="paint45_linear_858209_7544" x1="105.329" y1="235.6" x2="109.79" y2="236.886" gradientUnits="userSpaceOnUse">
<stop stop-color="#0E218A"/>
<stop offset="1" stop-color="#1F72D2"/>
</linearGradient>
<linearGradient id="paint46_linear_858209_7544" x1="105.465" y1="236.852" x2="109.52" y2="238.022" gradientUnits="userSpaceOnUse">
<stop stop-color="#0E218A"/>
<stop offset="1" stop-color="#1F72D2"/>
</linearGradient>
<linearGradient id="paint47_linear_858209_7544" x1="105.435" y1="238.088" x2="109.892" y2="239.375" gradientUnits="userSpaceOnUse">
<stop stop-color="#0E218A"/>
<stop offset="1" stop-color="#1F72D2"/>
</linearGradient>
<linearGradient id="paint48_linear_858209_7544" x1="105.396" y1="239.497" x2="109.451" y2="240.667" gradientUnits="userSpaceOnUse">
<stop stop-color="#0E218A"/>
<stop offset="1" stop-color="#1F72D2"/>
</linearGradient>
<linearGradient id="paint49_linear_858209_7544" x1="105.196" y1="240.872" x2="109.646" y2="242.155" gradientUnits="userSpaceOnUse">
<stop stop-color="#0E218A"/>
<stop offset="1" stop-color="#1F72D2"/>
</linearGradient>
<linearGradient id="paint50_linear_858209_7544" x1="105.318" y1="242.118" x2="109.372" y2="243.289" gradientUnits="userSpaceOnUse">
<stop stop-color="#0E218A"/>
<stop offset="1" stop-color="#1F72D2"/>
</linearGradient>
<linearGradient id="paint51_linear_858209_7544" x1="105.115" y1="243.514" x2="109.564" y2="244.797" gradientUnits="userSpaceOnUse">
<stop stop-color="#0E218A"/>
<stop offset="1" stop-color="#1F72D2"/>
</linearGradient>
<linearGradient id="paint52_linear_858209_7544" x1="87.3717" y1="249.727" x2="83.3828" y2="214.51" gradientUnits="userSpaceOnUse">
<stop stop-color="#D2D1CD"/>
<stop offset="1" stop-color="#ABAFB8"/>
</linearGradient>
<linearGradient id="paint53_linear_858209_7544" x1="99.7426" y1="248.326" x2="95.7536" y2="213.109" gradientUnits="userSpaceOnUse">
<stop stop-color="#D2D1CD"/>
<stop offset="1" stop-color="#ABAFB8"/>
</linearGradient>
<linearGradient id="paint54_linear_858209_7544" x1="104.591" y1="247.775" x2="100.602" y2="212.557" gradientUnits="userSpaceOnUse">
<stop stop-color="#D2D1CD"/>
<stop offset="1" stop-color="#ABAFB8"/>
</linearGradient>
<linearGradient id="paint55_linear_858209_7544" x1="96.2446" y1="248.724" x2="92.2557" y2="213.506" gradientUnits="userSpaceOnUse">
<stop stop-color="#D2D1CD"/>
<stop offset="1" stop-color="#ABAFB8"/>
</linearGradient>
<linearGradient id="paint56_linear_858209_7544" x1="95.919" y1="248.766" x2="91.9334" y2="213.537" gradientUnits="userSpaceOnUse">
<stop stop-color="#D2D1CD"/>
<stop offset="1" stop-color="#ABAFB8"/>
</linearGradient>
<linearGradient id="paint57_linear_858209_7544" x1="106.129" y1="282.701" x2="108.538" y2="235.226" gradientUnits="userSpaceOnUse">
<stop stop-color="#0E218A"/>
<stop offset="1" stop-color="#1F72D2"/>
</linearGradient>
</defs>
</svg>
